<svg width="157" height="45" viewBox="0 0 157 45" fill="none" xmlns="http://www.w3.org/2000/svg">
  <path
    d="M57.1651 30.6589C55.797 30.6589 54.6083 30.5468 53.5991 30.3226C52.5898 30.0984 51.7039 29.7397 50.9413 29.2464C50.6049 29.0447 50.347 28.7756 50.1676 28.4393C49.9881 28.1031 49.8984 27.7219 49.8984 27.296C49.8984 26.7803 50.0442 26.3543 50.3358 26.018C50.6273 25.6593 50.9862 25.48 51.4123 25.48C51.7039 25.48 51.9955 25.536 52.287 25.6481C52.5786 25.7378 52.8814 25.8499 53.1954 25.9844C53.8233 26.2759 54.4401 26.5113 55.0457 26.6906C55.6512 26.8476 56.4026 26.926 57.2997 26.926C58.0847 26.926 58.6902 26.8027 59.1163 26.5561C59.5649 26.3095 59.7892 25.9732 59.7892 25.5472C59.7892 25.2334 59.6883 24.9868 59.4864 24.8074C59.307 24.6056 58.9593 24.4263 58.4435 24.2693C57.9277 24.1124 57.109 23.9218 55.9876 23.6976C53.9915 23.3165 52.5562 22.7448 51.6815 21.9826C50.8068 21.2203 50.3694 20.1554 50.3694 18.7878C50.3694 17.7789 50.6722 16.8709 51.2778 16.0638C51.9057 15.2567 52.758 14.629 53.8346 14.1806C54.9111 13.7098 56.1222 13.4744 57.4679 13.4744C58.4323 13.4744 59.3743 13.5977 60.2938 13.8443C61.2134 14.0909 62.032 14.4384 62.7497 14.8868C63.4449 15.3128 63.7926 15.9405 63.7926 16.7701C63.7926 17.3081 63.6468 17.7565 63.3552 18.1152C63.0637 18.4739 62.7048 18.6533 62.2787 18.6533C61.7628 18.6533 61.1461 18.4515 60.4284 18.048C59.8677 17.7565 59.3518 17.5435 58.8808 17.409C58.4323 17.2521 57.894 17.1736 57.266 17.1736C56.5708 17.1736 56.0213 17.3081 55.6176 17.5771C55.2139 17.8238 55.012 18.1713 55.012 18.6197C55.012 19.0905 55.2475 19.4492 55.7185 19.6958C56.1895 19.9424 57.0978 20.189 58.4435 20.4356C59.9462 20.7271 61.1236 21.0858 61.9759 21.5118C62.8282 21.9153 63.4449 22.4309 63.8262 23.0587C64.2075 23.6864 64.3981 24.4823 64.3981 25.4464C64.3981 27.0381 63.7365 28.3048 62.4133 29.2464C61.1124 30.1881 59.3631 30.6589 57.1651 30.6589Z"
    fill="#FFC800" />
  <path
    d="M76.3216 26.8924C76.9944 26.9372 77.4878 27.1054 77.8018 27.3968C78.1158 27.6883 78.2728 28.1143 78.2728 28.6747C78.2728 29.3249 78.0149 29.8181 77.4991 30.1544C76.9832 30.4907 76.2431 30.6252 75.2787 30.558L74.3367 30.4907C70.4118 30.1768 68.4494 28.1255 68.4494 24.3366V17.678H67.1037C66.3636 17.678 65.8029 17.5211 65.4216 17.2072C65.0403 16.8709 64.8497 16.4001 64.8497 15.7948C64.8497 15.1671 65.0403 14.6963 65.4216 14.3824C65.8029 14.0461 66.3636 13.878 67.1037 13.878H68.4494V11.2549C68.4494 10.515 68.6736 9.93214 69.1222 9.50617C69.5932 9.0802 70.2212 8.86722 71.0062 8.86722C71.7911 8.86722 72.4079 9.0802 72.8565 9.50617C73.305 9.93214 73.5293 10.515 73.5293 11.2549V13.878H75.8842C77.4093 13.878 78.1719 14.5169 78.1719 15.7948C78.1719 16.4001 77.9813 16.8709 77.6 17.2072C77.2187 17.5211 76.6468 17.678 75.8842 17.678H73.5293V24.7065C73.5293 25.3791 73.6863 25.8947 74.0003 26.2535C74.3143 26.5897 74.7741 26.7803 75.3796 26.8251L76.3216 26.8924Z"
    fill="#FFC800" />
  <path
    d="M93.5032 13.5417C94.2882 13.5417 94.9049 13.7546 95.3535 14.1806C95.8245 14.6066 96.06 15.1895 96.06 15.9293V28.2712C96.06 28.9662 95.8133 29.5267 95.3198 29.9527C94.8489 30.3786 94.2321 30.5916 93.4695 30.5916C92.7518 30.5916 92.1799 30.3898 91.7538 29.9863C91.3277 29.5827 91.1146 29.0447 91.1146 28.3721V28.0358C90.5988 28.8877 89.9147 29.5379 89.0624 29.9863C88.2326 30.4347 87.2906 30.6589 86.2365 30.6589C84.1507 30.6589 82.592 30.0872 81.5603 28.9438C80.551 27.778 80.0464 26.0293 80.0464 23.6976V15.9293C80.0464 15.1895 80.2707 14.6066 80.7192 14.1806C81.1902 13.7546 81.8182 13.5417 82.6032 13.5417C83.3882 13.5417 84.0049 13.7546 84.4535 14.1806C84.9021 14.6066 85.1263 15.1895 85.1263 15.9293V23.7985C85.1263 24.785 85.3282 25.5136 85.7319 25.9844C86.158 26.4552 86.7972 26.6906 87.6495 26.6906C88.6363 26.6906 89.4325 26.3543 90.0381 25.6818C90.666 25.0092 90.98 24.1236 90.98 23.0251V15.9293C90.98 15.1895 91.2043 14.6066 91.6529 14.1806C92.1014 13.7546 92.7182 13.5417 93.5032 13.5417Z"
    fill="#FFC800" />
  <path
    d="M114.054 6.51318C114.839 6.51318 115.467 6.72617 115.938 7.15214C116.431 7.5781 116.678 8.13859 116.678 8.83359V28.2039C116.678 28.9214 116.443 29.5043 115.972 29.9527C115.523 30.3786 114.917 30.5916 114.155 30.5916C113.392 30.5916 112.776 30.3786 112.305 29.9527C111.856 29.5043 111.632 28.9214 111.632 28.2039V27.9349C111.138 28.7868 110.432 29.4594 109.512 29.9527C108.615 30.4235 107.595 30.6589 106.451 30.6589C105.038 30.6589 103.771 30.3001 102.649 29.5827C101.55 28.8429 100.687 27.8228 100.059 26.5225C99.4533 25.1997 99.1506 23.6864 99.1506 21.9826C99.1506 20.2787 99.4533 18.7878 100.059 17.5099C100.687 16.2096 101.55 15.2119 102.649 14.5169C103.748 13.8219 105.015 13.4744 106.451 13.4744C107.572 13.4744 108.582 13.7098 109.479 14.1806C110.398 14.6514 111.105 15.3128 111.598 16.1647V8.7327C111.598 8.06012 111.822 7.52206 112.271 7.11851C112.72 6.71496 113.314 6.51318 114.054 6.51318ZM107.931 26.7915C109.12 26.7915 110.028 26.388 110.656 25.5809C111.307 24.7514 111.632 23.5743 111.632 22.0498C111.632 20.5253 111.307 19.3595 110.656 18.5524C110.028 17.7453 109.12 17.3417 107.931 17.3417C106.742 17.3417 105.823 17.7453 105.172 18.5524C104.522 19.3371 104.197 20.4805 104.197 21.9826C104.197 23.5071 104.522 24.6953 105.172 25.5472C105.823 26.3768 106.742 26.7915 107.931 26.7915Z"
    fill="#FFC800" />
  <path
    d="M134.686 6.51318C135.471 6.51318 136.099 6.72617 136.57 7.15214C137.063 7.5781 137.31 8.13859 137.31 8.83359V28.2039C137.31 28.9214 137.075 29.5043 136.604 29.9527C136.155 30.3786 135.549 30.5916 134.787 30.5916C134.024 30.5916 133.408 30.3786 132.937 29.9527C132.488 29.5043 132.264 28.9214 132.264 28.2039V27.9349C131.77 28.7868 131.064 29.4594 130.144 29.9527C129.247 30.4235 128.227 30.6589 127.083 30.6589C125.67 30.6589 124.403 30.3001 123.281 29.5827C122.182 28.8429 121.319 27.8228 120.691 26.5225C120.085 25.1997 119.783 23.6864 119.783 21.9826C119.783 20.2787 120.085 18.7878 120.691 17.5099C121.319 16.2096 122.182 15.2119 123.281 14.5169C124.38 13.8219 125.647 13.4744 127.083 13.4744C128.204 13.4744 129.214 13.7098 130.111 14.1806C131.03 14.6514 131.737 15.3128 132.23 16.1647V8.7327C132.23 8.06012 132.454 7.52206 132.903 7.11851C133.352 6.71496 133.946 6.51318 134.686 6.51318ZM128.563 26.7915C129.752 26.7915 130.66 26.388 131.288 25.5809C131.939 24.7514 132.264 23.5743 132.264 22.0498C132.264 20.5253 131.939 19.3595 131.288 18.5524C130.66 17.7453 129.752 17.3417 128.563 17.3417C127.374 17.3417 126.455 17.7453 125.804 18.5524C125.154 19.3371 124.829 20.4805 124.829 21.9826C124.829 23.5071 125.154 24.6953 125.804 25.5472C126.455 26.3768 127.374 26.7915 128.563 26.7915Z"
    fill="#FFC800" />
  <path
    d="M152.492 14.9877C152.694 14.5169 152.974 14.1694 153.333 13.9452C153.714 13.721 154.118 13.6089 154.544 13.6089C155.195 13.6089 155.767 13.8219 156.26 14.2479C156.753 14.6514 157 15.1446 157 15.7276C157 16.0414 156.922 16.3553 156.765 16.6692L147.715 35.2324C147.491 35.7032 147.188 36.0507 146.807 36.2749C146.425 36.5215 146.022 36.6448 145.595 36.6448C144.967 36.6448 144.418 36.4431 143.947 36.0395C143.476 35.636 143.24 35.1427 143.24 34.5598C143.24 34.2011 143.319 33.8648 143.476 33.551L145.696 28.9438L139.708 16.6692C139.574 16.3553 139.506 16.0526 139.506 15.7612C139.506 15.1559 139.764 14.6402 140.28 14.2142C140.818 13.7883 141.424 13.5753 142.097 13.5753C142.545 13.5753 142.96 13.6986 143.341 13.9452C143.723 14.1694 144.025 14.5169 144.25 14.9877L148.421 24.0676L152.492 14.9877Z"
    fill="#FFC800" />
  <path
    d="M2.5371 28.037L0.488609 13.8042C-0.235457 8.77344 3.21332 4.11435 8.19168 3.39783L30.7269 0.154376C35.7053 -0.562147 40.328 2.93523 41.0521 7.96598L43.1006 22.1988C43.8246 27.2295 40.3759 31.8886 35.3975 32.6051L12.8622 35.8486C7.8839 36.5651 3.26117 33.0677 2.5371 28.037Z"
    fill="#FFC800" />
  <path
    d="M7.78038 42.6594L7.14648 18.2429L17.6316 31.858L9.91835 43.4362C9.24313 44.4497 7.80068 43.9257 7.78038 42.6594Z"
    fill="#FFC800" />
  <path
    d="M20.4859 42.6594L19.8521 18.2429L30.3372 31.858L22.6239 43.4362C21.9487 44.4497 20.5063 43.9257 20.4859 42.6594Z"
    fill="#FFC800" />
  <path
    d="M15.2486 14.4895C14.8833 11.9513 16.6448 9.59759 19.1829 9.23228C21.7211 8.86697 24.0748 10.6284 24.4401 13.1666L25.0071 17.1058C25.3724 19.6439 23.6109 21.9976 21.0728 22.363C18.5346 22.7283 16.1809 20.9668 15.8156 18.4287L15.2486 14.4895Z"
    fill="white" />
  <path
    d="M16.8418 15.6C16.6853 14.5123 17.4402 13.5035 18.528 13.347C19.6157 13.1904 20.6245 13.9453 20.781 15.0331L20.97 16.3462C21.1266 17.4339 20.3717 18.4427 19.2839 18.5992C18.1961 18.7558 17.1874 18.0009 17.0308 16.9131L16.8418 15.6Z"
    fill="#222222" />
  <path
    d="M16.8413 15.5992C16.7891 15.2366 17.0408 14.9003 17.4034 14.8482C17.766 14.796 18.1022 15.0476 18.1544 15.4102L18.3434 16.7233C18.3956 17.0859 18.1439 17.4221 17.7813 17.4743C17.4187 17.5265 17.0825 17.2748 17.0303 16.9123L16.8413 15.5992Z"
    fill="white" />
  <path
    d="M27.0665 12.7883C26.7012 10.2501 28.4626 7.89642 31.0008 7.53111C33.5389 7.1658 35.8927 8.92724 36.258 11.4654L36.8249 15.4046C37.1902 17.9427 35.4288 20.2965 32.8907 20.6618C30.3525 21.0271 27.9988 19.2657 27.6335 16.7275L27.0665 12.7883Z"
    fill="white" />
  <path
    d="M28.5684 13.9123C28.4118 12.8245 29.1667 11.8158 30.2545 11.6592C31.3423 11.5027 32.351 12.2576 32.5076 13.3453L32.6966 14.6584C32.8532 15.7462 32.0983 16.7549 31.0105 16.9115C29.9227 17.0681 28.914 16.3132 28.7574 15.2254L28.5684 13.9123Z"
    fill="#222222" />
  <path
    d="M28.5684 13.9117C28.5162 13.5491 28.7678 13.2128 29.1304 13.1607C29.493 13.1085 29.8293 13.3601 29.8814 13.7227L30.0704 15.0358C30.1226 15.3984 29.871 15.7346 29.5084 15.7868C29.1458 15.839 28.8095 15.5873 28.7574 15.2248L28.5684 13.9117Z"
    fill="white" />
  <path
    d="M29.517 20.7539L28.0522 17.2215C29.6944 16.024 31.6271 15.0992 33.6174 14.5628C35.5082 14.0532 37.3528 13.9205 38.9537 14.1588L36.6656 20.6066L29.517 20.7539ZM20.1152 17.1607C22.0753 17.1639 24.076 17.5199 25.8981 18.1843L21.6779 23.2766L17.2892 20.9049L14.9171 18.1243C16.3905 17.4969 18.1837 17.1575 20.1152 17.1607Z"
    fill="#FFC800" stroke="#FFC800" />
  <path fill-rule="evenodd" clip-rule="evenodd"
    d="M25.9807 6.7458C26.1838 7.05066 26.5956 7.13315 26.9005 6.93003C28.3252 5.9808 31.0096 5.24535 33.4273 5.72964C33.7865 5.80159 34.136 5.56873 34.208 5.20954C34.2799 4.85034 34.0471 4.50083 33.6879 4.42888C30.9026 3.87097 27.8628 4.69484 26.1649 5.82602C25.8601 6.02913 25.7776 6.44093 25.9807 6.7458Z"
    fill="#E3AC00" />
  <path fill-rule="evenodd" clip-rule="evenodd"
    d="M18.1726 20.2306C18.4269 19.9471 18.8628 19.9234 19.1463 20.1777C21.4103 22.2085 23.9247 23.1269 26.3541 23.0559C28.7847 22.9849 31.1943 21.9217 33.2439 19.8722C33.5132 19.6029 33.9498 19.6029 34.2191 19.8722C34.4884 20.1415 34.4884 20.5782 34.2191 20.8475C31.9512 23.1152 29.2174 24.352 26.3943 24.4345C23.57 24.517 20.7204 23.4424 18.2254 21.2043C17.9419 20.95 17.9183 20.5141 18.1726 20.2306Z"
    fill="#E3AC00" />
</svg>