<svg width="629" height="558" viewBox="0 0 629 558" fill="none" xmlns="http://www.w3.org/2000/svg">
<path d="M338.093 434.982C321.169 374.76 336.208 349.926 369.651 332.632C403.093 315.339 477.328 332.632 442.431 434.982C411.341 545.657 566.081 542.264 590.826 434.982" stroke="#FFB3E6" stroke-width="76.1382" stroke-linecap="round"/>
<rect x="170.24" y="174.948" width="206.063" height="206.063" rx="12.679" transform="rotate(9.33415 170.24 174.948)" fill="#1561B9"/>
<mask id="mask0_6554_10094" style="mask-type:alpha" maskUnits="userSpaceOnUse" x="138" y="176" width="234" height="234">
<rect x="170.24" y="174.948" width="206.063" height="206.063" rx="12.679" transform="rotate(9.33415 170.24 174.948)" fill="#1561B9"/>
</mask>
<g mask="url(#mask0_6554_10094)">
<rect x="134.464" y="168.328" width="35.9237" height="291.616" transform="rotate(-2.94965 134.464 168.328)" fill="#044A90"/>
<rect x="208.358" y="164.52" width="35.9237" height="291.616" transform="rotate(-2.94965 208.358 164.52)" fill="#044A90"/>
<rect x="282.253" y="160.712" width="35.9237" height="291.616" transform="rotate(-2.94965 282.253 160.712)" fill="#044A90"/>
<rect x="356.148" y="156.905" width="35.9237" height="291.616" transform="rotate(-2.94965 356.148 156.905)" fill="#044A90"/>
</g>
<path fill-rule="evenodd" clip-rule="evenodd" d="M125.539 477.857C194.872 477.857 251.077 421.652 251.077 352.319C251.077 282.986 194.872 226.78 125.539 226.78C56.2056 226.78 -3.05176e-05 282.986 -3.05176e-05 352.319C-3.05176e-05 421.652 56.2056 477.857 125.539 477.857ZM125.539 412.436C158.74 412.436 185.656 385.521 185.656 352.319C185.656 319.117 158.74 292.202 125.539 292.202C92.3368 292.202 65.4215 319.117 65.4215 352.319C65.4215 385.521 92.3368 412.436 125.539 412.436Z" fill="#009D9D"/>
<path fill-rule="evenodd" clip-rule="evenodd" d="M139.684 486.699C209.017 486.699 265.223 430.494 265.223 361.161C265.223 291.828 209.017 235.622 139.684 235.622C70.3507 235.622 14.1452 291.828 14.1452 361.161C14.1452 430.494 70.3507 486.699 139.684 486.699ZM139.684 421.278C172.886 421.278 199.801 394.363 199.801 361.161C199.801 327.959 172.886 301.044 139.684 301.044C106.482 301.044 79.5668 327.959 79.5668 361.161C79.5668 394.363 106.482 421.278 139.684 421.278Z" fill="#00C5C5"/>
<path d="M365.214 128.954L374.636 63.4911C377.966 40.3523 362.104 18.923 339.206 15.6273L235.556 0.709202C212.658 -2.58642 191.396 13.4996 188.065 36.6384L178.643 102.102C175.313 125.24 191.176 146.67 214.073 149.965L317.724 164.884C340.621 168.179 361.884 152.093 365.214 128.954Z" fill="#FFC800"/>
<path d="M341.099 197.478L344.015 85.1755L295.789 147.798L331.266 201.051C334.371 205.713 341.006 203.303 341.099 197.478Z" fill="#FFC800"/>
<path d="M225.15 181.244L283.826 85.4446L210.75 115.564L214.848 179.421C215.206 185.011 222.157 186.241 225.15 181.244Z" fill="#FFC800"/>
<path d="M306.749 66.6423C308.429 54.9681 300.327 44.1423 288.653 42.462C276.979 40.7818 266.153 48.8835 264.473 60.5576L261.865 78.6758C260.185 90.35 268.287 101.176 279.961 102.856C291.635 104.536 302.461 96.4347 304.141 84.7605L306.749 66.6423Z" fill="white"/>
<path d="M299.421 71.7507C300.142 66.7475 296.669 62.1078 291.666 61.3877C286.663 60.6676 282.023 64.1398 281.303 69.143L280.434 75.1824C279.714 80.1856 283.186 84.8253 288.189 85.5454C293.192 86.2655 297.832 82.7933 298.552 77.7901L299.421 71.7507Z" fill="#222222"/>
<path d="M299.423 71.7461C299.663 70.0784 298.505 68.5318 296.838 68.2918C295.17 68.0517 293.623 69.2091 293.383 70.8768L292.514 76.9163C292.274 78.584 293.431 80.1305 295.099 80.3706C296.767 80.6106 298.313 79.4532 298.553 77.7855L299.423 71.7461Z" fill="white"/>
<path d="M252.394 58.819C254.074 47.1449 245.972 36.319 234.298 34.6388C222.624 32.9585 211.798 41.0602 210.118 52.7344L207.51 70.8526C205.83 82.5268 213.932 93.3526 225.606 95.0329C237.28 96.7131 248.106 88.6114 249.786 76.9373L252.394 58.819Z" fill="white"/>
<path d="M245.485 63.987C246.205 58.9838 242.733 54.3442 237.73 53.6241C232.727 52.904 228.087 56.3761 227.367 61.3793L226.498 67.4187C225.777 72.4219 229.25 77.0616 234.253 77.7817C239.256 78.5018 243.896 75.0297 244.616 70.0264L245.485 63.987Z" fill="#222222"/>
<path d="M245.485 63.9851C245.725 62.3174 244.568 60.7708 242.9 60.5308C241.233 60.2907 239.686 61.4481 239.446 63.1159L238.577 69.1553C238.337 70.823 239.494 72.3696 241.162 72.6096C242.83 72.8496 244.376 71.6922 244.616 70.0245L245.485 63.9851Z" fill="white"/>
<path d="M242.225 97.1439L249.896 78.6463C241.953 72.6353 232.474 68.0069 222.697 65.3719C213.042 62.7699 203.572 62.2394 195.488 63.8151L207.059 96.4193L242.225 97.1439ZM284.363 77.2635C274.364 77.2799 264.143 79.2491 255.004 82.9112L276.768 109.173L298.429 97.4671L310.975 82.7611C303.586 79.1711 294.329 77.2471 284.363 77.2635Z" fill="#FFC800" stroke="#FFC800" stroke-width="1.26897"/>
<path fill-rule="evenodd" clip-rule="evenodd" d="M257.387 31.0256C256.452 32.4279 254.558 32.8073 253.156 31.873C246.603 27.5071 234.257 24.1244 223.136 26.3519C221.484 26.6828 219.876 25.6118 219.546 23.9597C219.215 22.3076 220.286 20.7 221.938 20.3691C234.749 17.803 248.73 21.5923 256.539 26.7952C257.942 27.7294 258.321 29.6234 257.387 31.0256Z" fill="#E3AC00"/>
<path fill-rule="evenodd" clip-rule="evenodd" d="M293.301 93.0489C292.132 91.745 290.126 91.6361 288.822 92.8058C278.409 102.146 266.845 106.371 255.671 106.044C244.491 105.717 233.408 100.827 223.981 91.4007C222.742 90.1621 220.734 90.1621 219.496 91.4008C218.257 92.6394 218.257 94.6476 219.496 95.8862C229.927 106.317 242.501 112.005 255.485 112.385C268.476 112.764 281.583 107.822 293.058 97.5278C294.362 96.3581 294.471 94.3528 293.301 93.0489Z" fill="#E3AC00"/>
</svg>
