<svg width="459" height="329" viewBox="0 0 459 329" fill="none" xmlns="http://www.w3.org/2000/svg">
<g clip-path="url(#clip0_7987_2658)">
<ellipse cx="374.441" cy="97.7859" rx="39.0559" ry="30.8801" transform="rotate(27.5649 374.441 97.7859)" fill="#E48EC7"/>
<ellipse cx="376.177" cy="96.0516" rx="39.0559" ry="30.8801" transform="rotate(27.5649 376.177 96.0516)" fill="#E48EC7"/>
<mask id="mask0_7987_2658" style="mask-type:alpha" maskUnits="userSpaceOnUse" x="340" y="60" width="76" height="67">
<ellipse cx="377.913" cy="93.4481" rx="39.0559" ry="30.8801" transform="rotate(27.5649 377.913 93.4481)" fill="#976000"/>
</mask>
<g mask="url(#mask0_7987_2658)">
<ellipse cx="379.699" cy="90.0262" rx="39.0559" ry="30.8801" transform="rotate(27.5649 379.699 90.0262)" fill="#FFB3E6"/>
</g>
<g clip-path="url(#clip1_7987_2658)">
<path fill-rule="evenodd" clip-rule="evenodd" d="M392.56 104.486L392.562 104.489C392.884 105.269 393 106.049 392.798 106.768C392.596 107.488 392.105 108.038 391.443 108.441C390.788 108.839 390.004 109.074 389.093 109.05C388.18 109.025 387.274 108.743 386.421 108.297L362.104 95.6038C361.252 95.1587 360.502 94.5769 359.96 93.8419C359.418 93.1083 359.164 92.3312 359.116 91.5659C359.068 90.7911 359.24 90.0731 359.719 89.4955C360.196 88.9209 360.905 88.5723 361.73 88.3931L375.182 85.3736L378.402 79.2049L378.145 79.0709C377.362 78.6622 376.747 78.0688 376.403 77.3466C376.059 76.6249 376.062 75.9335 376.367 75.3494C376.672 74.7651 377.24 74.365 378.037 74.2398C378.825 74.1162 379.658 74.2867 380.432 74.6907L393.101 81.3045C393.884 81.7131 394.497 82.3049 394.844 83.0227C395.194 83.7463 395.196 84.4423 394.889 85.031C394.581 85.6199 394.007 86.0183 393.204 86.1395C392.418 86.2582 391.589 86.0886 390.815 85.6847L390.568 85.5557L387.348 91.7244L392.56 104.486Z" fill="#E48EC7"/>
<path d="M364.146 94.2771C363.044 93.7018 362.473 92.8913 362.432 91.8457C362.391 90.8001 362.926 90.1421 364.034 89.8717L377.07 86.577L380.996 79.0551L379.319 78.1797C378.973 77.9986 378.73 77.7526 378.592 77.4417C378.454 77.1308 378.457 76.8376 378.6 76.562C378.744 76.2863 378.982 76.118 379.315 76.0569C379.647 75.9959 379.987 76.0559 380.333 76.2369L391.909 82.2793C392.256 82.4603 392.499 82.707 392.641 83.0195C392.782 83.3319 392.78 83.6259 392.636 83.9015C392.492 84.1771 392.253 84.3447 391.918 84.4043C391.582 84.4638 391.241 84.4031 390.895 84.2221L389.226 83.3512L385.3 90.873L390.049 103.452C390.456 104.513 390.218 105.326 389.337 105.89C388.456 106.455 387.464 106.449 386.362 105.874L364.146 94.2771Z" fill="white"/>
</g>
<path fill-rule="evenodd" clip-rule="evenodd" d="M402.793 312.927C421.95 303.014 430.784 282.036 422.523 266.072C422.187 265.422 421.828 264.791 421.446 264.178L422.523 266.072L353.149 301.969C361.409 317.934 383.636 322.839 402.793 312.927ZM350.408 293.619L416.357 258.14C405.859 248.772 388.366 247.101 372.879 255.114C356.923 263.37 348.129 279.302 350.408 293.619Z" fill="#009D9D"/>
<path d="M353.149 301.969L422.523 266.072L421.446 264.178C420.033 261.906 418.317 259.889 416.357 258.14L350.408 293.619C350.865 296.493 351.768 299.301 353.149 301.969Z" fill="#009D9D"/>
<path d="M349.061 294.344L353.149 301.969C351.768 299.301 350.865 296.493 350.408 293.619L349.061 294.344Z" fill="#009D9D"/>
<path d="M417.626 257.458L416.357 258.14C418.317 259.889 420.033 261.906 421.446 264.178L417.626 257.458Z" fill="#009D9D"/>
<mask id="mask1_7987_2658" style="mask-type:alpha" maskUnits="userSpaceOnUse" x="346" y="243" width="77" height="69">
<ellipse cx="384.644" cy="277.854" rx="39.0559" ry="32.5466" transform="rotate(-27.3588 384.644 277.854)" fill="#976000"/>
</mask>
<g mask="url(#mask1_7987_2658)">
<ellipse cx="382.775" cy="274.241" rx="39.0559" ry="32.5466" transform="rotate(-27.3588 382.775 274.241)" fill="#00C5C5"/>
</g>
<g clip-path="url(#clip2_7987_2658)">
<path fill-rule="evenodd" clip-rule="evenodd" d="M366.67 275.874L374.585 291.171C374.586 291.172 374.586 291.173 374.587 291.174C374.591 291.175 374.604 291.18 374.63 291.18C374.694 291.18 374.753 291.151 374.788 291.115C376.333 289.489 378.183 288.102 380.235 287.04C382.354 285.944 384.63 285.224 386.923 284.917L378.955 269.517C376.636 269.681 374.308 270.342 372.168 271.45C370.027 272.557 368.143 274.075 366.67 275.874ZM381.123 268.395L389.091 283.795C390.667 282.1 392.57 280.658 394.688 279.562C396.74 278.5 398.94 277.791 401.161 277.468C401.211 277.461 401.267 277.43 401.305 277.378C401.32 277.357 401.324 277.342 401.325 277.338C401.324 277.338 401.324 277.337 401.323 277.336L393.408 262.038C391.089 262.202 388.762 262.864 386.621 263.971C384.48 265.079 382.596 266.597 381.123 268.395ZM379.228 267.39C376.498 267.567 373.754 268.339 371.233 269.643C368.73 270.938 366.529 272.716 364.812 274.823C364.25 275.513 364.165 276.345 364.495 276.982L372.417 292.293C373.157 293.722 375.347 293.547 376.483 292.353C377.813 290.954 379.404 289.761 381.17 288.847C383.517 287.633 386.088 286.955 388.627 286.881C389.046 286.869 389.459 286.655 389.711 286.32C391.237 284.29 393.276 282.583 395.623 281.368C397.389 280.455 399.282 279.845 401.192 279.567C402.823 279.33 404.231 277.643 403.491 276.214L395.569 260.903C395.239 260.266 394.511 259.855 393.623 259.915C390.912 260.099 388.189 260.87 385.686 262.165C383.165 263.469 380.95 265.263 379.228 267.39Z" fill="#009D9D"/>
<path d="M366.577 275.756C368.073 273.967 369.969 272.456 372.114 271.346C374.386 270.17 376.864 269.484 379.324 269.345L387.628 285.393C385.185 285.641 382.748 286.372 380.493 287.538C378.709 288.461 377.082 289.635 375.681 291.002C375.123 291.547 374.28 291.466 374.056 291.033L366.493 276.418C366.378 276.195 366.423 275.94 366.577 275.756Z" fill="white"/>
<path d="M389.073 284.645L380.77 268.597C382.304 266.669 384.295 265.043 386.567 263.867C388.712 262.757 391.041 262.083 393.366 261.895C393.605 261.876 393.839 261.986 393.954 262.208L401.517 276.824C401.741 277.257 401.32 277.992 400.553 278.133C398.628 278.487 396.73 279.137 394.946 280.06C392.691 281.226 390.687 282.794 389.073 284.645Z" fill="white"/>
</g>
<ellipse cx="341.222" cy="172.988" rx="39.0559" ry="27.7731" transform="rotate(-124.165 341.222 172.988)" fill="#044A90"/>
<ellipse cx="337.632" cy="175.423" rx="39.0559" ry="27.7731" transform="rotate(-124.165 337.632 175.423)" fill="#044A90"/>
<mask id="mask2_7987_2658" style="mask-type:alpha" maskUnits="userSpaceOnUse" x="305" y="140" width="64" height="72">
<ellipse cx="336.914" cy="175.912" rx="39.0559" ry="27.7731" transform="rotate(-124.165 336.914 175.912)" fill="#976000"/>
</mask>
<g mask="url(#mask2_7987_2658)">
<ellipse cx="334.041" cy="177.861" rx="39.0559" ry="27.7731" transform="rotate(-124.165 334.041 177.861)" fill="#1561B9"/>
</g>
<g clip-path="url(#clip3_7987_2658)">
<path d="M326.804 173.971C326.791 174.604 326.79 175.235 326.802 175.863C326.53 175.661 326.269 175.46 326.021 175.26C324.84 174.307 324.039 173.459 323.571 172.798C323.26 172.359 323.172 172.115 323.147 172.022C323.174 171.988 323.237 171.924 323.369 171.842C323.746 171.607 324.47 171.373 325.64 171.309C326.04 171.288 326.474 171.287 326.94 171.309C326.87 172.169 326.824 173.056 326.805 173.965C326.805 173.966 326.804 173.967 326.804 173.967L326.804 173.971ZM334.998 186.029C335.848 186.345 336.688 186.629 337.511 186.88C337.36 187.321 337.199 187.724 337.031 188.087C336.54 189.151 336.054 189.739 335.696 190.003C335.571 190.095 335.488 190.13 335.447 190.143C335.368 190.085 335.174 189.913 334.881 189.463C334.441 188.785 333.949 187.728 333.5 186.28C333.406 185.975 333.315 185.658 333.228 185.33C333.807 185.573 334.395 185.805 334.989 186.026C334.992 186.027 334.995 186.028 334.998 186.029ZM317.801 170.612L317.801 170.612C317.761 172.462 318.607 174.243 319.619 175.672C320.637 177.11 322.005 178.461 323.515 179.68C324.673 180.614 325.979 181.522 327.394 182.377C327.666 184.006 328.027 185.555 328.467 186.976C329.041 188.829 329.791 190.597 330.752 192.075C331.706 193.542 333.048 194.986 334.78 195.631L334.781 195.631C336.577 196.3 338.131 195.865 339.285 195.014C340.4 194.192 341.26 192.915 341.92 191.486C342.377 190.494 342.771 189.359 343.094 188.11C344.374 188.271 345.574 188.325 346.665 188.266C348.236 188.181 349.739 187.853 350.915 187.121C352.132 186.362 353.109 185.08 353.152 183.164L353.152 183.164C353.192 181.315 352.345 179.533 351.333 178.105C350.314 176.666 348.947 175.315 347.437 174.097C346.278 173.163 344.972 172.255 343.558 171.4C343.285 169.77 342.925 168.221 342.484 166.8C341.91 164.947 341.16 163.178 340.199 161.701C339.245 160.233 337.903 158.79 336.17 158.144L336.17 158.144C334.373 157.476 332.819 157.911 331.665 158.763C330.551 159.585 329.691 160.862 329.032 162.291C328.574 163.282 328.181 164.418 327.858 165.667C326.578 165.506 325.378 165.452 324.287 165.511C322.716 165.596 321.213 165.923 320.038 166.656C318.82 167.414 317.843 168.697 317.801 170.612ZM332.142 175.343L332.142 175.342C332.164 174.261 332.23 173.229 332.332 172.258C333.273 172.522 334.257 172.842 335.271 173.219L335.272 173.22C336.471 173.665 337.625 174.159 338.719 174.685C338.805 175.897 338.838 177.154 338.81 178.434L338.81 178.435C338.787 179.516 338.722 180.548 338.62 181.519C337.679 181.255 336.695 180.935 335.68 180.558L335.68 180.557C334.481 180.112 333.326 179.618 332.233 179.092C332.147 177.88 332.114 176.623 332.142 175.343ZM335.989 167.762C335.979 167.758 335.969 167.753 335.958 167.749C335.106 167.432 334.265 167.148 333.44 166.897C333.592 166.456 333.753 166.053 333.92 165.69C334.412 164.625 334.897 164.038 335.255 163.773C335.381 163.681 335.463 163.646 335.505 163.633C335.583 163.691 335.777 163.864 336.069 164.313C336.51 164.991 337.002 166.048 337.451 167.496C337.55 167.815 337.645 168.147 337.735 168.49L335.989 167.762ZM343.95 182.465L344.05 177.84C344.358 178.066 344.652 178.292 344.931 178.517C346.112 179.47 346.913 180.318 347.381 180.979C347.691 181.417 347.78 181.661 347.805 181.755C347.778 181.788 347.715 181.853 347.583 181.935C347.206 182.17 346.482 182.404 345.312 182.467C344.894 182.49 344.44 182.49 343.95 182.465ZM333.745 174.338C333.091 174.781 332.822 175.51 332.807 176.199C332.792 176.891 333.022 177.623 333.455 178.26C333.887 178.898 334.482 179.382 335.131 179.623C335.777 179.864 336.553 179.882 337.207 179.439L337.218 179.432C337.871 178.988 338.14 178.26 338.155 177.57C338.17 176.879 337.941 176.147 337.508 175.509C337.075 174.872 336.48 174.388 335.831 174.147C335.185 173.906 334.409 173.887 333.756 174.331L333.745 174.338Z" fill="white" stroke="#044A90" stroke-width="1.73582" stroke-linecap="round" stroke-linejoin="round"/>
</g>
<ellipse cx="45.0832" cy="214.448" rx="39.0559" ry="32.9805" transform="rotate(17.3652 45.0832 214.448)" fill="#5CA838"/>
<mask id="mask3_7987_2658" style="mask-type:alpha" maskUnits="userSpaceOnUse" x="7" y="177" width="78" height="68">
<ellipse cx="46.1196" cy="211.134" rx="39.0559" ry="32.9805" transform="rotate(17.3652 46.1196 211.134)" fill="#976000"/>
</mask>
<g mask="url(#mask3_7987_2658)">
<ellipse cx="47.3498" cy="207.198" rx="39.0559" ry="32.9805" transform="rotate(17.3652 47.3498 207.198)" fill="#7AC656"/>
</g>
<g clip-path="url(#clip4_7987_2658)">
<path d="M36.09 194.13C34.9115 193.761 33.4482 194.218 33.0393 195.525L32.2191 198.148C31.3734 200.852 31.8466 203.809 33.4693 206.361C35.089 208.907 37.7273 210.859 40.7895 211.816L43.0674 212.529L40.4555 220.881C40.0466 222.189 40.9893 223.397 42.1678 223.766C43.3463 224.134 44.8096 223.678 45.2185 222.371L46.6 217.953L48.878 218.665C51.9401 219.623 55.2201 219.522 58.0022 218.352C60.7895 217.179 62.8628 215.019 63.7085 212.315L64.1186 211.003C64.5275 209.696 63.5848 208.487 62.4063 208.119L57.7468 206.662C55.0831 205.829 52.2545 205.796 49.7322 206.572C49.7389 204.678 49.1668 202.768 48.0696 201.043C46.45 198.496 43.8116 196.545 40.7495 195.587L36.09 194.13Z" fill="white" stroke="#5CA838" stroke-width="1.73582" stroke-linecap="round" stroke-linejoin="round"/>
</g>
<ellipse cx="53.6585" cy="63.0526" rx="39.0559" ry="29.5089" transform="rotate(75.7231 53.6585 63.0526)" fill="#E18800"/>
<ellipse cx="57.0228" cy="62.1971" rx="39.0559" ry="29.5089" transform="rotate(75.7231 57.0228 62.1971)" fill="#E18800"/>
<mask id="mask4_7987_2658" style="mask-type:alpha" maskUnits="userSpaceOnUse" x="31" y="22" width="61" height="78">
<ellipse cx="61.2284" cy="61.1268" rx="39.0559" ry="29.5089" transform="rotate(75.7231 61.2284 61.1268)" fill="#976000"/>
</mask>
<g mask="url(#mask4_7987_2658)">
<ellipse cx="64.8031" cy="60.2166" rx="39.0559" ry="29.5089" transform="rotate(75.7231 64.8031 60.2166)" fill="#FFA600"/>
</g>
<path d="M47.6649 48.1049L48.465 48.4412L47.6649 48.1049L47.1778 49.2638C46.8237 50.1063 46.8057 51.0586 47.0231 51.9131C47.2405 52.7675 47.7115 53.5953 48.4253 54.1661L63.152 65.9434C63.6037 66.3046 64.1782 66.4666 64.745 66.3224C64.8952 66.2842 65.0357 66.2268 65.1651 66.1531C65.1527 66.4232 65.1832 66.6907 65.2467 66.9404C65.3746 67.443 65.6547 67.9449 66.0973 68.2988L68.0609 69.8691C68.7837 70.4471 69.6582 70.6758 70.4908 70.4639C71.3234 70.252 71.9822 69.6332 72.3408 68.78L72.8279 67.6211C73.182 66.7786 73.2 65.8263 72.9826 64.9719C72.7652 64.1175 72.2941 63.2896 71.5804 62.7188L69.6168 61.1485C69.1652 60.7873 68.5906 60.6253 68.0239 60.7695C67.8736 60.8077 67.7332 60.8651 67.6037 60.9388C67.6161 60.6687 67.5857 60.4012 67.5221 60.1515C67.3942 59.6489 67.1141 59.147 66.6715 58.7931L51.9448 47.0158C51.222 46.4378 50.3475 46.2092 49.5149 46.421C48.6823 46.6329 48.0234 47.2517 47.6649 48.1049ZM67.0781 57.2712C67.6863 57.1165 68.0915 56.6638 68.2962 56.1769C68.5006 55.6906 68.5328 55.1226 68.394 54.5771L68.2582 54.0436L68.4558 53.9933C69.064 53.8385 69.4692 53.3858 69.6738 52.8989C69.8782 52.4126 69.9105 51.8446 69.7717 51.2992C69.6329 50.7537 69.3331 50.2703 68.9211 49.9408C68.5086 49.6109 67.9363 49.407 67.3281 49.5617L67.1305 49.612L66.9948 49.0784C66.856 48.533 66.5562 48.0495 66.1442 47.72C65.7317 47.3902 65.1594 47.1862 64.5512 47.341C63.9429 47.4958 63.5378 47.9485 63.3331 48.4354C63.1287 48.9217 63.0965 49.4897 63.2353 50.0351L63.3711 50.5687L63.1735 50.6189C62.5653 50.7737 62.1601 51.2264 61.9555 51.7133C61.7511 52.1996 61.7188 52.7676 61.8576 53.3131C61.9964 53.8585 62.2962 54.342 62.7082 54.6715C63.1207 55.0013 63.693 55.2053 64.3012 55.0505L64.4987 55.0002L64.6345 55.5338C64.7733 56.0793 65.0731 56.5627 65.4851 56.8922C65.8976 57.2221 66.4699 57.426 67.0781 57.2712ZM64.1938 79.7399C64.802 79.5851 65.2072 79.1324 65.4118 78.6455C65.6162 78.1592 65.6485 77.5912 65.5097 77.0457L65.3739 76.5122L65.5715 76.4619C66.1797 76.3071 66.5849 75.8545 66.7895 75.3676C66.9939 74.8812 67.0262 74.3133 66.8874 73.7678C66.7486 73.2223 66.4487 72.7389 66.0368 72.4094C65.6243 72.0795 65.052 71.8756 64.4438 72.0304L64.2462 72.0806L64.1105 71.547C63.9717 71.0016 63.6718 70.5181 63.2598 70.1886C62.8474 69.8588 62.2751 69.6548 61.6669 69.8096C61.0586 69.9644 60.6534 70.4171 60.4488 70.904C60.2444 71.3903 60.2122 71.9583 60.351 72.5037L60.4867 73.0373L60.2892 73.0876C59.681 73.2423 59.2758 73.695 59.0711 74.1819C58.8668 74.6682 58.8345 75.2362 58.9733 75.7817C59.1121 76.3271 59.4119 76.8106 59.8239 77.1401C60.2364 77.4699 60.8086 77.6739 61.4169 77.5191L61.6144 77.4688L61.7502 78.0024C61.889 78.5479 62.1888 79.0313 62.6008 79.3608C63.0133 79.6907 63.5856 79.8946 64.1938 79.7399ZM58.5788 72.1525C59.187 71.9977 59.5922 71.5451 59.7969 71.0582C60.0013 70.5718 60.0335 70.0039 59.8947 69.4584L59.7589 68.9248L59.9565 68.8746C60.5647 68.7198 60.9699 68.2671 61.1745 67.7802C61.3789 67.2939 61.4112 66.7259 61.2724 66.1805C61.1336 65.635 60.8338 65.1515 60.4218 64.8221C60.0093 64.4922 59.437 64.2882 58.8288 64.443L58.6312 64.4933L58.4955 63.9597C58.3567 63.4143 58.0569 62.9308 57.6449 62.6013C57.2324 62.2715 56.6601 62.0675 56.0519 62.2223C55.4436 62.3771 55.0385 62.8297 54.8338 63.3166C54.6294 63.803 54.5972 64.3709 54.736 64.9164L54.8717 65.45L54.6742 65.5002C54.066 65.655 53.6608 66.1077 53.4562 66.5946C53.2518 67.0809 53.2195 67.6489 53.3583 68.1943C53.4971 68.7398 53.7969 69.2233 54.2089 69.5528C54.6214 69.8826 55.1937 70.0866 55.8019 69.9318L55.9994 69.8815L56.1352 70.4151C56.274 70.9605 56.5738 71.444 56.9858 71.7735C57.3983 72.1034 57.9706 72.3073 58.5788 72.1525Z" fill="white" stroke="#E18800" stroke-width="1.73582"/>
<path fill-rule="evenodd" clip-rule="evenodd" d="M69.0928 61.7829L69.6336 60.4962L71.5972 62.0665C73.3037 63.4312 74.0007 66.1706 73.1541 68.185L72.667 69.3439C71.8204 71.3583 69.7507 71.885 68.0442 70.5203L66.0806 68.95C65.5076 68.4917 65.1014 67.8062 64.9055 67.0644C64.3414 67.1985 63.7083 67.0528 63.1353 66.5945L61.185 65.0348C61.3737 65.3477 61.5243 65.7033 61.6229 66.0907C62.0209 67.6551 61.4272 69.1691 60.2902 69.5659C60.3141 69.684 60.3324 69.8015 60.3454 69.918C60.6214 69.497 61.0089 69.1928 61.4796 69.0731C62.6616 68.7723 63.9384 69.7431 64.4062 71.2625C65.5946 71.0675 66.8398 72.1137 67.2378 73.678C67.6359 75.2424 67.0422 76.7565 65.9052 77.1532C66.2206 78.7114 65.5631 80.1745 64.3811 80.4752C63.1992 80.776 61.9223 79.8052 61.4545 78.2858C60.2662 78.4808 59.021 77.4346 58.6229 75.8703C58.2248 74.3059 58.8185 72.7918 59.9555 72.3951C59.9316 72.277 59.9133 72.1595 59.9004 72.043C59.6243 72.464 59.2368 72.7681 58.7661 72.8879C57.5842 73.1887 56.3073 72.2179 55.8395 70.6984C54.6512 70.8934 53.406 69.8473 53.0079 68.2829C52.6098 66.7186 53.2035 65.2045 54.3405 64.8078C54.0251 63.2496 54.6827 61.7865 55.8646 61.4857C56.1573 61.4113 56.4559 61.4148 56.7465 61.4853L48.4086 54.8173C46.7021 53.4525 46.005 50.7132 46.8516 48.6988L47.3387 47.5399C48.1853 45.5255 50.255 44.9988 51.9615 46.3635L61.8328 54.2578C61.6962 53.996 61.5854 53.7088 61.5072 53.4017C61.1091 51.8373 61.7028 50.3232 62.8398 49.9265C62.5245 48.3683 63.182 46.9052 64.3639 46.6045C65.5459 46.3037 66.8227 47.2745 67.2905 48.7939C68.4789 48.5989 69.7241 49.6451 70.1222 51.2094C70.5202 52.7738 69.9265 54.2879 68.7895 54.6846C69.1049 56.2428 68.4474 57.7059 67.2654 58.0066C67.0333 58.0657 66.7976 58.0757 66.565 58.0422L66.6883 58.1408C67.2613 58.599 67.6675 59.2845 67.8634 60.0264C68.4275 59.8923 69.0606 60.038 69.6336 60.4962L69.0928 61.7829ZM67.9207 61.7691C68.242 61.5129 68.6878 61.5163 69.0748 61.8258L71.0384 63.3961C72.1228 64.2633 72.5658 66.0041 72.0278 67.2842L71.5407 68.4432C71.0027 69.7233 69.6874 70.058 68.603 69.1907L66.6394 67.6204C66.2524 67.3109 66.0288 66.7789 66.0303 66.267C66.0309 66.0617 66.0677 65.8596 66.1447 65.6763L66.1447 65.6763L67.606 62.1996C67.683 62.0163 67.7918 61.8718 67.9207 61.7691ZM66.7386 60.8238C66.7401 60.3118 66.5165 59.7798 66.1295 59.4703L51.4027 47.6931C50.3183 46.8258 49.003 47.1605 48.465 48.4406L47.9779 49.5995C47.4399 50.8797 47.8829 52.6205 48.9674 53.4877L63.6941 65.265C64.0811 65.5745 64.5269 65.5778 64.8482 65.3216C64.9771 65.2189 65.0859 65.0744 65.163 64.8912C65.163 64.8912 65.163 64.8912 65.163 64.8912L66.6242 61.4144C66.7012 61.2312 66.738 61.0291 66.7386 60.8238ZM64.6097 56.4785C64.5024 56.2729 64.411 56.0516 64.3388 55.8172C64.1555 55.8472 63.9708 55.8478 63.7881 55.8215L64.6097 56.4785ZM58.4081 62.8141C58.5647 63.0737 58.6951 63.3629 58.7912 63.6752C59.0355 63.6351 59.2822 63.6475 59.5234 63.706L58.4081 62.8141ZM67.5529 54.7906C67.7461 55.5498 67.4377 56.2836 66.8641 56.4296C66.2905 56.5755 65.6688 56.0784 65.4757 55.3192L65.1258 53.9445L64.0872 54.2088C63.5136 54.3548 62.8919 53.8577 62.6988 53.0984C62.5056 52.3392 62.814 51.6054 63.3876 51.4595L64.4262 51.1952L64.0764 49.8205C63.8832 49.0613 64.1916 48.3275 64.7652 48.1815C65.3389 48.0356 65.9605 48.5327 66.1537 49.2919L66.5035 50.6666L67.5421 50.4023C68.1158 50.2563 68.7374 50.7534 68.9306 51.5126C69.1238 52.2719 68.8154 53.0056 68.2418 53.1516L67.2031 53.4159L67.5529 54.7906ZM63.9798 78.8982C64.5534 78.7522 64.8618 78.0184 64.6686 77.2592L64.3188 75.8845L65.3575 75.6202C65.9311 75.4743 66.2395 74.7405 66.0463 73.9813C65.8531 73.222 65.2315 72.7249 64.6578 72.8709L63.6192 73.1352L63.2694 71.7605C63.0762 71.0013 62.4546 70.5042 61.8809 70.6501C61.3073 70.7961 60.9989 71.5299 61.1921 72.2891L61.5419 73.6638L60.5033 73.9281C59.9296 74.0741 59.6212 74.8078 59.8144 75.5671C60.0076 76.3263 60.6293 76.8234 61.2029 76.6774L62.2415 76.4131L62.5913 77.7878C62.7845 78.547 63.4062 79.0441 63.9798 78.8982ZM59.0536 69.6719C59.2468 70.4311 58.9384 71.1649 58.3648 71.3108C57.7912 71.4568 57.1695 70.9597 56.9764 70.2005L56.6265 68.8258L55.5879 69.0901C55.0143 69.2361 54.3926 68.7389 54.1994 67.9797C54.0063 67.2205 54.3147 66.4867 54.8883 66.3408L55.9269 66.0765L55.5771 64.7018C55.3839 63.9426 55.6923 63.2088 56.2659 63.0628C56.8396 62.9168 57.4612 63.414 57.6544 64.1732L58.0042 65.5479L59.0428 65.2836C59.6165 65.1376 60.2381 65.6347 60.4313 66.3939C60.6245 67.1531 60.3161 67.8869 59.7425 68.0329L58.7038 68.2972L59.0536 69.6719ZM67.606 62.1996C67.606 62.1996 67.6059 62.1996 67.606 62.1996Z" fill="#E18800"/>
<path d="M159.011 102.979C163.989 118.244 151.4 136.039 130.892 142.726C110.385 149.413 89.7257 142.46 84.7482 127.196C84.0417 125.029 83.6891 122.811 83.6628 120.582C83.504 107.103 95.2707 93.1869 112.867 87.449C130.359 81.745 147.962 85.9653 155.849 96.8027C156.64 97.889 157.333 99.0417 157.918 100.258C158.339 101.133 158.705 102.04 159.011 102.979Z" fill="#E3AC00"/>
<path d="M84.7482 127.196C84.0417 125.029 83.6891 122.811 83.6628 120.582L82.6788 120.906L84.7482 127.196Z" fill="#E3AC00"/>
<path d="M155.849 96.8027C156.64 97.889 157.333 99.0417 157.918 100.258L156.451 96.6045L155.849 96.8027Z" fill="#E3AC00"/>
<mask id="mask5_7987_2658" style="mask-type:alpha" maskUnits="userSpaceOnUse" x="81" y="80" width="78" height="61">
<ellipse cx="120.144" cy="110.747" rx="39.0559" ry="29.0709" transform="rotate(-18.0605 120.144 110.747)" fill="#976000"/>
</mask>
<g mask="url(#mask5_7987_2658)">
<ellipse cx="119.017" cy="107.292" rx="39.0559" ry="29.0709" transform="rotate(-18.0605 119.017 107.292)" fill="#FFC800"/>
</g>
<g clip-path="url(#clip5_7987_2658)">
<path d="M100.8 103.975C100.385 102.703 101.434 101.22 103.143 100.663L127.898 92.5908C129.606 92.0335 131.328 92.613 131.743 93.885L137.751 112.311C138.166 113.583 137.117 115.066 135.408 115.623L110.654 123.695C108.945 124.252 107.223 123.673 106.808 122.401L100.8 103.975Z" fill="#E3AC00"/>
<path d="M114.43 114.91L115.021 116.724C115.089 116.932 115.237 117.074 115.464 117.15C115.692 117.226 115.947 117.218 116.227 117.127C116.502 117.037 116.709 116.895 116.848 116.699C116.987 116.503 117.023 116.301 116.955 116.093L116.363 114.279L118.8 113.485C119.073 113.396 119.281 113.253 119.422 113.056C119.563 112.858 119.6 112.655 119.531 112.446C119.465 112.242 119.316 112.102 119.086 112.026C118.856 111.95 118.604 111.956 118.331 112.045L115.894 112.84L115.303 111.026C115.236 110.823 115.087 110.682 114.856 110.605C114.624 110.528 114.369 110.534 114.092 110.625C113.814 110.715 113.608 110.859 113.472 111.056C113.337 111.253 113.302 111.453 113.369 111.657L113.96 113.471L111.523 114.265C111.244 114.356 111.036 114.501 110.898 114.7C110.761 114.898 110.726 115.1 110.793 115.307C110.861 115.514 111.008 115.654 111.234 115.729C111.461 115.804 111.713 115.796 111.993 115.705L114.43 114.91ZM124.127 113.436L130.006 111.519C130.268 111.434 130.466 111.293 130.6 111.099C130.734 110.904 130.767 110.702 130.698 110.493C130.632 110.289 130.492 110.151 130.28 110.08C130.068 110.008 129.823 110.018 129.546 110.108L123.628 112.038C123.36 112.125 123.159 112.261 123.025 112.446C122.891 112.63 122.858 112.825 122.925 113.032C122.992 113.238 123.14 113.38 123.367 113.457C123.594 113.534 123.847 113.527 124.127 113.436ZM123.122 110.356L128.963 108.451C129.236 108.362 129.443 108.219 129.584 108.022C129.725 107.825 129.762 107.622 129.694 107.413C129.627 107.208 129.479 107.068 129.249 106.992C129.018 106.916 128.767 106.922 128.493 107.012L122.653 108.916C122.373 109.007 122.165 109.152 122.028 109.35C121.89 109.549 121.855 109.751 121.923 109.958C121.99 110.165 122.137 110.305 122.364 110.38C122.59 110.455 122.843 110.447 123.122 110.356ZM123.863 103.048L125.93 103.743C126.171 103.835 126.424 103.837 126.688 103.751C126.953 103.665 127.164 103.511 127.322 103.289C127.474 103.075 127.518 102.871 127.455 102.678C127.392 102.484 127.235 102.342 126.984 102.253L124.918 101.557L126.177 99.777C126.331 99.5698 126.376 99.3676 126.311 99.1705C126.247 98.9734 126.09 98.8301 125.839 98.7406C125.582 98.6594 125.322 98.662 125.057 98.7484C124.792 98.8347 124.589 98.9834 124.447 99.1946L123.187 100.975L121.12 100.279C120.875 100.195 120.619 100.195 120.354 100.282C120.088 100.369 119.879 100.519 119.728 100.733C119.572 100.955 119.526 101.165 119.59 101.362C119.655 101.559 119.813 101.695 120.066 101.77L122.133 102.465L120.873 104.246C120.715 104.461 120.669 104.669 120.734 104.868C120.799 105.068 120.958 105.206 121.211 105.282C121.452 105.374 121.705 105.376 121.97 105.29C122.234 105.203 122.446 105.05 122.604 104.828L123.863 103.048ZM109.871 107.23L115.518 105.388C115.791 105.299 115.998 105.156 116.14 104.959C116.281 104.762 116.317 104.559 116.249 104.35C116.181 104.141 116.032 103.999 115.803 103.926C115.573 103.852 115.322 103.86 115.049 103.949L109.402 105.79C109.122 105.881 108.914 106.025 108.775 106.221C108.637 106.417 108.602 106.62 108.67 106.828C108.739 107.037 108.886 107.179 109.112 107.254C109.339 107.329 109.592 107.321 109.871 107.23ZM111.191 122.438C110.479 122.67 109.799 122.676 109.149 122.458C108.5 122.239 108.089 121.865 107.916 121.335L102.324 104.185C102.15 103.654 102.261 103.107 102.657 102.547C103.052 101.986 103.605 101.59 104.317 101.357L127.358 93.8442C128.072 93.6113 128.755 93.6045 129.407 93.8239C130.058 94.0432 130.471 94.4187 130.644 94.9503L136.237 112.1C136.409 112.63 136.297 113.175 135.899 113.735C135.502 114.295 134.946 114.691 134.232 114.924L111.191 122.438Z" fill="white"/>
</g>
<path d="M180.586 306.517L167.915 226.873L208.143 266.887L187.921 308.131C186.151 311.742 181.202 310.653 180.586 306.517Z" fill="#FFC800"/>
<path d="M252.928 306.168L255.701 225.57L220.703 270.231L245.847 308.673C248.048 312.038 252.826 310.348 252.928 306.168Z" fill="#FFC800"/>
<path d="M280.59 240.361L274.363 193.293C272.162 176.657 257.032 164.936 240.568 167.114L166.044 176.973C149.581 179.151 138.019 194.403 140.22 211.04L146.446 258.108C148.647 274.745 163.778 286.466 180.241 284.288L254.765 274.428C271.229 272.25 282.791 256.998 280.59 240.361Z" fill="#FFC800"/>
<path d="M221.81 207.153C220.7 198.76 212.995 192.855 204.601 193.966C196.208 195.076 190.304 202.781 191.414 211.174L193.137 224.201C194.248 232.595 201.952 238.499 210.346 237.389C218.74 236.278 224.644 228.574 223.534 220.18L221.81 207.153Z" fill="white"/>
<path d="M217.741 212.107C217.265 208.51 213.963 205.98 210.366 206.455C206.769 206.931 204.238 210.233 204.714 213.831L205.289 218.173C205.765 221.77 209.067 224.301 212.664 223.825C216.261 223.349 218.792 220.047 218.316 216.45L217.741 212.107Z" fill="#222222"/>
<path d="M217.741 209.991C217.582 208.792 216.482 207.949 215.282 208.108C214.083 208.266 213.24 209.367 213.399 210.566L213.973 214.908C214.132 216.107 215.232 216.951 216.431 216.792C217.63 216.634 218.474 215.533 218.315 214.334L217.741 209.991Z" fill="#F2F2F2"/>
<path d="M182.729 212.323C181.618 203.929 173.914 198.025 165.52 199.136C157.126 200.246 151.222 207.951 152.333 216.344L154.056 229.371C155.167 237.765 162.871 243.669 171.265 242.559C179.659 241.448 185.563 233.744 184.452 225.35L182.729 212.323Z" fill="white"/>
<path d="M178.961 217.238C178.485 213.641 175.183 211.11 171.586 211.586C167.988 212.062 165.458 215.364 165.934 218.961L166.508 223.304C166.984 226.901 170.286 229.431 173.884 228.956C177.481 228.48 180.011 225.178 179.535 221.58L178.961 217.238Z" fill="#222222"/>
<path d="M178.961 215.122C178.802 213.923 177.702 213.08 176.502 213.238C175.303 213.397 174.46 214.498 174.619 215.697L175.193 220.039C175.352 221.238 176.452 222.082 177.651 221.923C178.85 221.764 179.694 220.664 179.535 219.465L178.961 215.122Z" fill="#F2F2F2"/>
<path d="M230.89 214.094C223.685 214.397 215.977 215.841 208.802 218.232C201.628 220.623 195.33 223.846 190.756 227.468L202.531 240.948L223.808 234.615L230.89 214.094Z" fill="#FFC800"/>
<path d="M146.441 224.647C153.477 223.066 161.295 222.456 168.845 222.899C176.394 223.341 183.313 224.816 188.672 227.124L180.807 243.203L158.615 242.62L146.441 224.647Z" fill="#FFC800"/>
<path fill-rule="evenodd" clip-rule="evenodd" d="M223.722 222.687C222.514 222.339 221.252 223.035 220.903 224.244C218.641 232.083 210.508 238.476 200.898 241.545C191.259 244.624 181.227 244.017 175.497 239.216C174.533 238.409 173.097 238.536 172.289 239.5C171.482 240.464 171.609 241.9 172.573 242.707C180.034 248.957 191.972 249.176 202.283 245.883C212.623 242.581 222.422 235.405 225.278 225.506C225.627 224.298 224.93 223.036 223.722 222.687Z" fill="#E3AC00"/>
<path d="M198.472 189.454C197.911 188.435 198.253 187.035 199.26 186.521C203.19 184.517 207.645 183.774 212.082 184.647C216.722 185.561 220.711 188.119 223.627 191.709C224.306 192.545 224.117 193.887 223.283 194.621C222.461 195.345 221.319 195.201 220.636 194.39C218.254 191.563 215.033 189.538 211.265 188.796C207.667 188.088 204.087 188.651 200.919 190.195C200.016 190.635 198.972 190.361 198.472 189.454Z" fill="#E3AC00"/>
</g>
<defs>
<clipPath id="clip0_7987_2658">
<rect width="459" height="329" fill="white"/>
</clipPath>
<clipPath id="clip1_7987_2658">
<rect width="39.0559" height="30.8801" fill="white" transform="translate(370.349 67.252) rotate(27.5649)"/>
</clipPath>
<clipPath id="clip2_7987_2658">
<rect width="39.0559" height="32.5466" fill="white" transform="translate(359.023 270.834) rotate(-27.3588)"/>
</clipPath>
<clipPath id="clip3_7987_2658">
<rect width="39.0559" height="27.7731" fill="white" transform="translate(334.952 200.844) rotate(-124.165)"/>
</clipPath>
<clipPath id="clip4_7987_2658">
<rect width="39.0559" height="32.9805" fill="white" transform="translate(32.4019 189.566) rotate(17.3652)"/>
</clipPath>
<clipPath id="clip5_7987_2658">
<rect width="39.0559" height="29.0709" fill="white" transform="translate(96.2034 100.379) rotate(-18.0605)"/>
</clipPath>
</defs>
</svg>
