<svg width="1347" height="251" viewBox="0 0 1347 251" fill="none" xmlns="http://www.w3.org/2000/svg">
<g clip-path="url(#clip0_7733_12198)">
<path d="M740.504 177.613L749.786 113.128C753.066 90.3355 737.441 69.2266 714.885 65.9802L612.785 51.2851C590.229 48.0387 569.285 63.8843 566.004 86.6772L556.723 151.162C553.443 173.955 569.068 195.064 591.624 198.31L693.724 213.005C716.28 216.251 737.224 200.406 740.504 177.613Z" fill="#FFC800"/>
<path d="M716.749 243.862L719.621 133.238L672.116 194.924L707.063 247.382C710.122 251.974 716.657 249.599 716.749 243.862Z" fill="#FFC800"/>
<path d="M659.183 243.862L662.055 133.238L614.55 194.924L649.496 247.382C652.555 251.974 659.091 249.599 659.183 243.862Z" fill="#FFC800"/>
<path d="M682.914 116.233C684.569 104.734 676.588 94.0696 665.089 92.4145C653.589 90.7594 642.925 98.74 641.27 110.24L638.701 128.087C637.046 139.587 645.026 150.251 656.526 151.906C668.026 153.561 678.69 145.58 680.345 134.081L682.914 116.233Z" fill="white"/>
<path d="M675.696 121.266C676.405 116.338 672.985 111.767 668.057 111.058C663.128 110.349 658.558 113.769 657.849 118.697L656.992 124.646C656.283 129.575 659.703 134.145 664.632 134.854C669.56 135.564 674.13 132.144 674.84 127.215L675.696 121.266Z" fill="#222222"/>
<path d="M675.696 121.26C675.932 119.617 674.792 118.094 673.149 117.857C671.506 117.621 669.983 118.761 669.746 120.404L668.89 126.353C668.654 127.996 669.794 129.519 671.437 129.755C673.079 129.992 674.603 128.852 674.839 127.209L675.696 121.26Z" fill="white"/>
<path d="M629.371 108.526C631.026 97.0266 623.045 86.3626 611.546 84.7075C600.046 83.0524 589.382 91.0329 587.727 102.533L585.158 120.38C583.503 131.88 591.483 142.544 602.983 144.199C614.483 145.854 625.147 137.873 626.802 126.374L629.371 108.526Z" fill="white"/>
<path d="M622.565 113.618C623.274 108.689 619.854 104.119 614.926 103.41C609.997 102.7 605.427 106.12 604.718 111.049L603.861 116.998C603.152 121.926 606.572 126.497 611.501 127.206C616.429 127.915 621 124.495 621.709 119.567L622.565 113.618Z" fill="#222222"/>
<path d="M622.565 113.615C622.801 111.973 621.661 110.449 620.018 110.213C618.375 109.976 616.852 111.116 616.616 112.759L615.759 118.708C615.523 120.351 616.663 121.874 618.306 122.111C619.949 122.347 621.472 121.207 621.708 119.564L622.565 113.615Z" fill="white"/>
<path d="M619.436 146.404L627.062 128.015C619.209 122.056 609.827 117.468 600.149 114.86C590.568 112.277 581.166 111.762 573.149 113.352L584.624 145.687L619.436 146.404ZM660.861 126.569C650.938 126.586 640.794 128.551 631.735 132.205L653.349 158.286L674.797 146.695L687.275 132.068C679.952 128.476 670.759 126.553 660.861 126.569Z" fill="#FFC800" stroke="#FFC800"/>
<path fill-rule="evenodd" clip-rule="evenodd" d="M634.289 81.1479C633.369 82.5292 631.503 82.9029 630.122 81.9826C623.667 77.6819 611.505 74.3498 600.551 76.544C598.924 76.87 597.34 75.815 597.014 74.1876C596.688 72.5602 597.743 70.9766 599.371 70.6507C611.99 68.1229 625.762 71.8556 633.455 76.9807C634.836 77.9009 635.21 79.7667 634.289 81.1479Z" fill="#E3AC00"/>
<path fill-rule="evenodd" clip-rule="evenodd" d="M669.666 142.244C668.513 140.96 666.538 140.853 665.254 142.005C654.997 151.206 643.605 155.367 632.598 155.045C621.585 154.724 610.668 149.906 601.382 140.621C600.162 139.401 598.184 139.401 596.963 140.621C595.743 141.841 595.743 143.819 596.964 145.039C607.239 155.314 619.625 160.918 632.415 161.291C645.211 161.665 658.122 156.796 669.426 146.656C670.711 145.504 670.818 143.529 669.666 142.244Z" fill="#E3AC00"/>
<ellipse cx="926.404" cy="84.365" rx="45" ry="35.5799" transform="rotate(27.5649 926.404 84.365)" fill="#E48EC7"/>
<ellipse cx="928.404" cy="82.365" rx="45" ry="35.5799" transform="rotate(27.5649 928.404 82.365)" fill="#E48EC7"/>
<mask id="mask0_7733_12198" style="mask-type:alpha" maskUnits="userSpaceOnUse" x="887" y="41" width="87" height="77">
<ellipse cx="930.404" cy="79.365" rx="45" ry="35.5799" transform="rotate(27.5649 930.404 79.365)" fill="#976000"/>
</mask>
<g mask="url(#mask0_7733_12198)">
<ellipse cx="932.462" cy="75.4217" rx="45" ry="35.5799" transform="rotate(27.5649 932.462 75.4217)" fill="#FFB3E6"/>
</g>
<g clip-path="url(#clip1_7733_12198)">
<path fill-rule="evenodd" clip-rule="evenodd" d="M947.281 92.0832L947.283 92.0873C947.654 92.9857 947.787 93.8846 947.555 94.7122C947.322 95.5427 946.757 96.1761 945.994 96.6399C945.239 97.0988 944.337 97.3702 943.287 97.3418C942.234 97.3132 941.191 96.9878 940.208 96.4749L912.19 81.8494C911.208 81.3366 910.344 80.6662 909.719 79.8193C909.095 78.9741 908.802 78.0787 908.747 77.197C908.691 76.3042 908.889 75.477 909.442 74.8115C909.991 74.1494 910.808 73.7477 911.759 73.5412L927.258 70.0622L930.968 62.9546L930.672 62.8003C929.77 62.3294 929.061 61.6456 928.665 60.8135C928.269 59.9819 928.272 59.1854 928.624 58.5124C928.975 57.8391 929.629 57.3781 930.548 57.2339C931.456 57.0915 932.415 57.2879 933.307 57.7534L947.905 65.3738C948.807 65.8445 949.513 66.5265 949.913 67.3535C950.316 68.1872 950.318 68.9892 949.964 69.6674C949.61 70.346 948.948 70.8051 948.023 70.9447C947.118 71.0815 946.162 70.8861 945.27 70.4207L944.986 70.2721L941.276 77.3796L947.281 92.0832Z" fill="#E48EC7"/>
<path d="M914.542 80.3204C913.272 79.6575 912.614 78.7237 912.567 77.5189C912.52 76.3142 913.136 75.5561 914.413 75.2444L929.433 71.4483L933.957 62.7816L932.025 61.773C931.625 61.5644 931.346 61.281 931.186 60.9228C931.027 60.5645 931.03 60.2266 931.196 59.9091C931.362 59.5915 931.636 59.3975 932.019 59.3272C932.402 59.2568 932.793 59.326 933.193 59.5345L946.53 66.4966C946.93 66.7052 947.211 66.9894 947.373 67.3494C947.536 67.7093 947.534 68.0481 947.368 68.3657C947.203 68.6832 946.927 68.8763 946.54 68.945C946.154 69.0136 945.761 68.9436 945.362 68.735L943.439 67.7316L938.915 76.3983L944.388 90.8911C944.856 92.1141 944.582 93.0508 943.567 93.7012C942.552 94.3516 941.409 94.3453 940.139 93.6824L914.542 80.3204Z" fill="white"/>
</g>
<path fill-rule="evenodd" clip-rule="evenodd" d="M1100.96 217.911C1123.03 206.489 1133.21 182.319 1123.69 163.925C1123.3 163.176 1122.89 162.449 1122.45 161.742L1123.69 163.925L1043.76 205.285C1053.28 223.68 1078.88 229.332 1100.96 217.911ZM1040.6 195.665L1116.59 154.786C1104.49 143.992 1084.33 142.067 1066.49 151.3C1048.11 160.812 1037.97 179.168 1040.6 195.665Z" fill="#009D9D"/>
<path d="M1043.76 205.285L1123.69 163.925L1122.45 161.742C1120.82 159.125 1118.84 156.801 1116.59 154.786L1040.6 195.665C1041.13 198.975 1042.17 202.211 1043.76 205.285Z" fill="#009D9D"/>
<path d="M1039.05 196.5L1043.76 205.285C1042.17 202.211 1041.13 198.975 1040.6 195.665L1039.05 196.5Z" fill="#009D9D"/>
<path d="M1118.05 154L1116.59 154.786C1118.84 156.801 1120.82 159.125 1122.45 161.742L1118.05 154Z" fill="#009D9D"/>
<mask id="mask1_7733_12198" style="mask-type:alpha" maskUnits="userSpaceOnUse" x="1036" y="138" width="88" height="79">
<ellipse cx="1080.05" cy="177.5" rx="45" ry="37.5" transform="rotate(-27.3588 1080.05 177.5)" fill="#976000"/>
</mask>
<g mask="url(#mask1_7733_12198)">
<ellipse cx="1077.89" cy="173.336" rx="45" ry="37.5" transform="rotate(-27.3588 1077.89 173.336)" fill="#00C5C5"/>
</g>
<g clip-path="url(#clip2_7733_12198)">
<path fill-rule="evenodd" clip-rule="evenodd" d="M1059.34 175.218L1068.46 192.844C1068.46 192.845 1068.46 192.846 1068.46 192.847C1068.47 192.849 1068.48 192.854 1068.51 192.854C1068.59 192.854 1068.65 192.821 1068.69 192.779C1070.47 190.905 1072.6 189.308 1074.97 188.084C1077.41 186.821 1080.03 185.992 1082.68 185.638L1073.49 167.894C1070.82 168.083 1068.14 168.845 1065.67 170.121C1063.21 171.397 1061.04 173.146 1059.34 175.218ZM1075.99 166.602L1085.17 184.345C1086.99 182.393 1089.18 180.731 1091.62 179.468C1093.99 178.244 1096.52 177.427 1099.08 177.056C1099.14 177.047 1099.2 177.011 1099.25 176.951C1099.26 176.927 1099.27 176.911 1099.27 176.906C1099.27 176.905 1099.27 176.904 1099.27 176.903L1090.15 159.277C1087.48 159.466 1084.79 160.228 1082.33 161.504C1079.86 162.78 1077.69 164.53 1075.99 166.602ZM1073.81 165.443C1070.66 165.647 1067.5 166.537 1064.6 168.039C1061.71 169.532 1059.18 171.58 1057.2 174.007C1056.55 174.802 1056.45 175.761 1056.83 176.495L1065.96 194.136C1066.81 195.782 1069.34 195.582 1070.65 194.206C1072.18 192.593 1074.01 191.219 1076.05 190.166C1078.75 188.767 1081.71 187.986 1084.64 187.901C1085.12 187.887 1085.6 187.64 1085.89 187.254C1087.65 184.916 1090 182.948 1092.7 181.549C1094.73 180.497 1096.92 179.794 1099.12 179.474C1101 179.201 1102.62 177.256 1101.77 175.61L1092.64 157.969C1092.26 157.235 1091.42 156.761 1090.39 156.831C1087.27 157.043 1084.13 157.931 1081.25 159.423C1078.35 160.926 1075.79 162.993 1073.81 165.443Z" fill="#009D9D"/>
<path d="M1059.23 175.083C1060.96 173.022 1063.14 171.28 1065.61 170.001C1068.23 168.647 1071.08 167.856 1073.92 167.697L1083.49 186.187C1080.67 186.472 1077.86 187.314 1075.27 188.659C1073.21 189.722 1071.34 191.075 1069.72 192.65C1069.08 193.277 1068.11 193.184 1067.85 192.686L1059.14 175.845C1059 175.589 1059.06 175.295 1059.23 175.083Z" fill="white"/>
<path d="M1085.15 185.325L1075.59 166.835C1077.35 164.613 1079.65 162.739 1082.27 161.385C1084.74 160.105 1087.42 159.329 1090.1 159.112C1090.37 159.09 1090.64 159.217 1090.78 159.474L1099.49 176.314C1099.75 176.812 1099.26 177.659 1098.38 177.821C1096.16 178.229 1093.97 178.978 1091.92 180.042C1089.32 181.386 1087.01 183.193 1085.15 185.325Z" fill="white"/>
</g>
<ellipse cx="1164.76" cy="52.8364" rx="45" ry="32" transform="rotate(-124.165 1164.76 52.8364)" fill="#044A90"/>
<ellipse cx="1160.62" cy="55.6431" rx="45" ry="32" transform="rotate(-124.165 1160.62 55.6431)" fill="#044A90"/>
<mask id="mask2_7733_12198" style="mask-type:alpha" maskUnits="userSpaceOnUse" x="1123" y="14" width="74" height="84">
<ellipse cx="1159.8" cy="56.2056" rx="45" ry="32" transform="rotate(-124.165 1159.8 56.2056)" fill="#976000"/>
</mask>
<g mask="url(#mask2_7733_12198)">
<ellipse cx="1156.49" cy="58.4517" rx="45" ry="32" transform="rotate(-124.165 1156.49 58.4517)" fill="#1561B9"/>
</g>
<g clip-path="url(#clip3_7733_12198)">
<path d="M1160.49 68.8431C1159.54 68.5536 1158.57 68.2261 1157.59 67.8608L1160.49 68.8431ZM1160.49 68.8431C1160.31 69.3508 1160.13 69.815 1159.93 70.2335C1159.37 71.4599 1158.81 72.1367 1158.4 72.4408C1158.25 72.5474 1158.16 72.5875 1158.11 72.6025C1158.02 72.5358 1157.79 72.3369 1157.46 71.8186C1156.95 71.0382 1156.38 69.8205 1155.87 68.1516C1155.76 67.7998 1155.65 67.4346 1155.55 67.0569C1156.22 67.3374 1156.9 67.6058 1157.59 67.8607L1160.49 68.8431ZM1137.78 50.0992L1137.78 50.0995C1137.73 52.2301 1138.71 54.2826 1139.87 55.9287C1141.05 57.5863 1142.62 59.143 1144.36 60.5468C1145.7 61.6235 1147.2 62.669 1148.83 63.654C1149.14 65.5319 1149.56 67.3161 1150.07 68.9536C1150.73 71.0881 1151.59 73.126 1152.7 74.8284C1153.8 76.5193 1155.34 78.1821 1157.34 78.9259L1157.34 78.926C1159.41 79.6965 1161.2 79.1955 1162.53 78.2145C1163.82 77.2673 1164.81 75.7967 1165.57 74.1504C1166.09 73.0074 1166.55 71.6987 1166.92 70.2598C1168.39 70.445 1169.78 70.5074 1171.03 70.4394C1172.84 70.3416 1174.58 69.964 1175.93 69.1202C1177.33 68.2463 1178.46 66.7684 1178.51 64.5613L1178.51 64.5607C1178.55 62.4303 1177.58 60.3775 1176.41 58.7318C1175.24 57.0745 1173.66 55.518 1171.92 54.1143C1170.59 53.0376 1169.08 51.9921 1167.45 51.0071C1167.14 49.129 1166.72 47.3445 1166.22 45.7068C1165.56 43.572 1164.69 41.534 1163.58 39.8315C1162.48 38.1405 1160.94 36.4776 1158.94 35.7337L1158.94 35.7335C1156.87 34.9638 1155.08 35.4653 1153.75 36.4465C1152.47 37.394 1151.48 38.8646 1150.72 40.5109C1150.19 41.6539 1149.74 42.9625 1149.36 44.4013C1147.89 44.2161 1146.51 44.1536 1145.25 44.2215C1143.44 44.3192 1141.71 44.6966 1140.35 45.5404C1138.95 46.4143 1137.83 47.8923 1137.78 50.0992ZM1154.3 55.5499L1154.3 55.5492C1154.33 54.3027 1154.4 53.1146 1154.52 51.9955C1155.6 52.2994 1156.74 52.668 1157.91 53.1031L1157.91 53.1034C1159.29 53.6164 1160.62 54.1856 1161.88 54.7923C1161.98 56.1879 1162.02 57.637 1161.98 59.1115L1161.98 59.1122C1161.96 60.3586 1161.88 61.5467 1161.76 62.6658C1160.68 62.3619 1159.55 61.9934 1158.38 61.5582L1158.38 61.5579C1157 61.0449 1155.67 60.4757 1154.41 59.8691C1154.31 58.4734 1154.27 57.0245 1154.3 55.5499ZM1158.73 46.815C1158.72 46.81 1158.71 46.8053 1158.7 46.8008C1157.72 46.4354 1156.75 46.1077 1155.8 45.8182C1155.97 45.3104 1156.16 44.8461 1156.35 44.4275C1156.92 43.2009 1157.48 42.5238 1157.89 42.2195C1158.03 42.1131 1158.13 42.0728 1158.18 42.0577C1158.27 42.1247 1158.49 42.3239 1158.83 42.8413C1159.33 43.622 1159.9 44.84 1160.42 46.5091C1160.53 46.8763 1160.64 47.2582 1160.75 47.6537L1158.73 46.815ZM1156.15 54.392C1155.39 54.9029 1155.09 55.742 1155.07 56.5365C1155.05 57.3336 1155.31 58.1765 1155.81 58.9113C1156.31 59.646 1157 60.2031 1157.75 60.4813C1158.49 60.7585 1159.38 60.7803 1160.14 60.2694L1160.15 60.2609C1160.9 59.7499 1161.21 58.9109 1161.23 58.1164C1161.25 57.3193 1160.98 56.4764 1160.48 55.7416C1159.98 55.0069 1159.3 54.4498 1158.55 54.1716C1157.81 53.8944 1156.91 53.8726 1156.16 54.3835L1156.15 54.392ZM1167.91 63.7558L1168.02 58.4275C1168.38 58.6879 1168.72 58.9482 1169.04 59.2072C1170.4 60.3047 1171.32 61.2825 1171.86 62.0433C1172.22 62.5479 1172.32 62.8296 1172.35 62.9378C1172.32 62.9763 1172.24 63.0502 1172.09 63.1451C1171.66 63.4156 1170.82 63.6856 1169.48 63.7585C1168.99 63.7844 1168.47 63.7842 1167.91 63.7558ZM1148.31 50.9018C1148.23 51.8936 1148.17 52.9167 1148.15 53.9653L1148.15 53.9656C1148.14 54.6961 1148.13 55.4247 1148.15 56.149C1147.83 55.9169 1147.53 55.685 1147.25 55.4542C1145.89 54.3566 1144.96 53.3789 1144.43 52.6182C1144.07 52.1123 1143.97 51.8306 1143.94 51.723C1143.97 51.6846 1144.04 51.6106 1144.19 51.5155C1144.63 51.2452 1145.46 50.9753 1146.81 50.9025C1147.27 50.8776 1147.77 50.8768 1148.31 50.9018Z" fill="white" stroke="#044A90" stroke-width="2" stroke-linecap="round" stroke-linejoin="round"/>
</g>
<ellipse cx="318.854" cy="167.818" rx="45" ry="38" transform="rotate(17.3652 318.854 167.818)" fill="#5CA838"/>
<mask id="mask3_7733_12198" style="mask-type:alpha" maskUnits="userSpaceOnUse" x="275" y="125" width="90" height="78">
<ellipse cx="320.047" cy="164" rx="45" ry="38" transform="rotate(17.3652 320.047 164)" fill="#976000"/>
</mask>
<g mask="url(#mask3_7733_12198)">
<ellipse cx="321.465" cy="159.466" rx="45" ry="38" transform="rotate(17.3652 321.465 159.466)" fill="#7AC656"/>
</g>
<g clip-path="url(#clip4_7733_12198)">
<path d="M308.494 144.408C307.136 143.983 305.45 144.509 304.979 146.015L304.034 149.038C303.059 152.154 303.604 155.56 305.474 158.5C307.34 161.434 310.38 163.683 313.908 164.786L316.533 165.607L313.524 175.231C313.052 176.737 314.139 178.13 315.497 178.554C316.854 178.979 318.54 178.453 319.012 176.947L320.603 171.857L323.228 172.677C326.756 173.781 330.535 173.665 333.741 172.316C336.952 170.965 339.341 168.476 340.316 165.361L340.788 163.849C341.259 162.343 340.173 160.95 338.815 160.526L333.447 158.847C330.377 157.887 327.118 157.85 324.212 158.744C324.22 156.561 323.561 154.361 322.297 152.373C320.43 149.438 317.391 147.19 313.862 146.087L308.494 144.408Z" fill="white" stroke="#5CA838" stroke-width="2" stroke-linecap="round" stroke-linejoin="round"/>
</g>
<ellipse cx="35.3252" cy="101.218" rx="45" ry="34" transform="rotate(75.7231 35.3252 101.218)" fill="#E18800"/>
<ellipse cx="39.2022" cy="100.231" rx="45" ry="34" transform="rotate(75.7231 39.2022 100.231)" fill="#E18800"/>
<mask id="mask4_7733_12198" style="mask-type:alpha" maskUnits="userSpaceOnUse" x="9" y="54" width="70" height="90">
<ellipse cx="44.0479" cy="98.9988" rx="45" ry="34" transform="rotate(75.7231 44.0479 98.9988)" fill="#976000"/>
</mask>
<g mask="url(#mask4_7733_12198)">
<ellipse cx="48.167" cy="97.95" rx="45" ry="34" transform="rotate(75.7231 48.167 97.95)" fill="#FFA600"/>
</g>
<path d="M51.3951 98.781C51.4093 98.4698 51.3742 98.1616 51.301 97.8738C51.1536 97.2947 50.8309 96.7165 50.3209 96.3087L33.3528 82.739C32.5201 82.073 31.5125 81.8096 30.5532 82.0537C29.5938 82.2978 28.8347 83.0108 28.4216 83.9938L29.3435 84.3813L28.4216 83.9938L27.8604 85.3291C27.4524 86.2999 27.4316 87.3971 27.6821 88.3816C27.9326 89.366 28.4753 90.3199 29.2977 90.9775L46.2658 104.547C46.7862 104.963 47.4482 105.15 48.1012 104.984C48.2743 104.94 48.4361 104.874 48.5853 104.789C48.571 105.1 48.6061 105.408 48.6793 105.696C48.8267 106.275 49.1494 106.853 49.6594 107.261L51.9218 109.07C52.7546 109.736 53.7622 110 54.7215 109.756C55.6808 109.512 56.4399 108.799 56.8531 107.816L57.4143 106.48C57.8222 105.51 57.843 104.412 57.5925 103.428C57.342 102.443 56.7993 101.49 55.9769 100.832L53.7145 99.0226L53.09 99.8036L53.7145 99.0226C53.1941 98.6065 52.5321 98.4197 51.8791 98.5859C51.706 98.63 51.5442 98.6961 51.3951 98.781ZM50.7894 94.5552C51.4902 94.3769 51.9571 93.8553 52.1928 93.2943C52.4284 92.734 52.4655 92.0796 52.3056 91.4511L52.1491 90.8363L52.3767 90.7784C53.0776 90.6001 53.5444 90.0785 53.7802 89.5175C54.0157 88.9571 54.0528 88.3027 53.8929 87.6743C53.733 87.0458 53.3876 86.4887 52.9129 86.1091C52.4376 85.729 51.7782 85.494 51.0774 85.6724L50.8498 85.7303L50.6934 85.1155C50.5335 84.4871 50.188 83.93 49.7133 83.5504C49.2381 83.1703 48.5787 82.9353 47.8779 83.1137C47.1771 83.292 46.7102 83.8136 46.4745 84.3746C46.239 84.9349 46.2018 85.5893 46.3617 86.2178L46.5182 86.8326L46.2906 86.8905C45.5897 87.0688 45.1229 87.5904 44.8871 88.1514C44.6516 88.7117 44.6145 89.3662 44.7744 89.9946C44.9343 90.6231 45.2797 91.1802 45.7544 91.5598C46.2297 91.9398 46.8891 92.1748 47.5899 91.9965L47.8175 91.9386L47.9739 92.5534C48.1338 93.1818 48.4793 93.7389 48.954 94.1185C49.4292 94.4986 50.0886 94.7336 50.7894 94.5552ZM47.4661 120.443C48.1669 120.265 48.6338 119.744 48.8696 119.183C49.1051 118.622 49.1422 117.968 48.9823 117.339L48.8259 116.725L49.0535 116.667C49.7543 116.488 50.2211 115.967 50.4569 115.406C50.6924 114.845 50.7296 114.191 50.5696 113.562C50.4097 112.934 50.0643 112.377 49.5896 111.997C49.1143 111.617 48.455 111.382 47.7541 111.561L47.5265 111.619L47.3701 111.004C47.2102 110.375 46.8647 109.818 46.39 109.439C45.9148 109.059 45.2554 108.824 44.5546 109.002C43.8538 109.18 43.3869 109.702 43.1512 110.263C42.9157 110.823 42.8785 111.478 43.0384 112.106L43.1949 112.721L42.9673 112.779C42.2665 112.957 41.7996 113.479 41.5638 114.04C41.3283 114.6 41.2912 115.254 41.4511 115.883C41.611 116.511 41.9565 117.068 42.4312 117.448C42.9064 117.828 43.5658 118.063 44.2666 117.885L44.4942 117.827L44.6506 118.442C44.8106 119.07 45.156 119.627 45.6307 120.007C46.1059 120.387 46.7653 120.622 47.4661 120.443ZM40.9966 111.701C41.6974 111.523 42.1642 111.001 42.4 110.44C42.6355 109.88 42.6726 109.226 42.5127 108.597L42.3563 107.982L42.5839 107.925C43.2847 107.746 43.7515 107.225 43.9873 106.664C44.2228 106.103 44.26 105.449 44.1001 104.82C43.9401 104.192 43.5947 103.635 43.12 103.255C42.6447 102.875 41.9854 102.64 41.2846 102.819L41.057 102.876L40.9005 102.262C40.7406 101.633 40.3952 101.076 39.9205 100.697C39.4452 100.316 38.7859 100.081 38.085 100.26C37.3842 100.438 36.9174 100.96 36.6816 101.521C36.4461 102.081 36.4089 102.735 36.5689 103.364L36.7253 103.979L36.4977 104.037C35.7969 104.215 35.33 104.737 35.0943 105.298C34.8588 105.858 34.8216 106.512 34.9815 107.141C35.1414 107.769 35.4869 108.326 35.9616 108.706C36.4368 109.086 37.0962 109.321 37.797 109.143L38.0246 109.085L38.1811 109.7C38.341 110.328 38.6864 110.885 39.1611 111.265C39.6364 111.645 40.2957 111.88 40.9966 111.701Z" fill="white" stroke="#E18800" stroke-width="2"/>
<path fill-rule="evenodd" clip-rule="evenodd" d="M53.1109 99.7546L53.7339 98.2721L55.9963 100.081C57.9626 101.654 58.7657 104.81 57.7903 107.131L57.2291 108.466C56.2536 110.787 53.8689 111.394 51.9026 109.822L49.6402 108.013C48.98 107.485 48.5119 106.695 48.2862 105.84C47.6363 105.994 46.9069 105.827 46.2466 105.299L43.9995 103.501C44.2169 103.862 44.3904 104.272 44.504 104.718C44.9626 106.521 44.2786 108.265 42.9685 108.722C42.9961 108.858 43.0172 108.994 43.0321 109.128C43.3501 108.643 43.7966 108.292 44.3389 108.154C45.7008 107.808 47.172 108.926 47.711 110.677C49.0802 110.452 50.5149 111.658 50.9736 113.46C51.4322 115.263 50.7482 117.007 49.4381 117.464C49.8015 119.26 49.0439 120.945 47.682 121.292C46.3202 121.638 44.849 120.52 44.31 118.769C42.9408 118.994 41.5061 117.788 41.0474 115.986C40.5888 114.184 41.2728 112.439 42.5829 111.982C42.5553 111.846 42.5342 111.711 42.5193 111.576C42.2013 112.061 41.7548 112.412 41.2125 112.55C39.8506 112.896 38.3794 111.778 37.8404 110.027C36.4712 110.252 35.0365 109.046 34.5778 107.244C34.1192 105.442 34.8032 103.697 36.1133 103.24C35.7499 101.445 36.5075 99.7588 37.8694 99.4123C38.2066 99.3264 38.5506 99.3305 38.8855 99.4117L29.2785 91.7289C27.3123 90.1564 26.5091 87.0002 27.4846 84.6792L28.0458 83.3439C29.0213 81.0229 31.406 80.4161 33.3722 81.9885L44.7459 91.0842C44.5885 90.7826 44.4608 90.4517 44.3707 90.0978C43.912 88.2954 44.5961 86.5509 45.9062 86.0937C45.5428 84.2984 46.3004 82.6127 47.6622 82.2661C49.0241 81.9196 50.4953 83.0381 51.0343 84.7888C52.4035 84.5641 53.8382 85.7695 54.2968 87.5719C54.7555 89.3744 54.0714 91.1189 52.7614 91.576C53.1248 93.3714 52.3672 95.0571 51.0053 95.4036C50.7379 95.4717 50.4663 95.4832 50.1983 95.4446L50.3403 95.5582C51.0006 96.0862 51.4686 96.876 51.6944 97.7308C52.3443 97.5763 53.0737 97.7441 53.7339 98.2721L53.1109 99.7546ZM51.7603 99.7388C52.1305 99.4436 52.6442 99.4475 53.0901 99.8041L55.3525 101.613C56.602 102.613 57.1124 104.618 56.4925 106.093L55.9313 107.429C55.3114 108.904 53.796 109.289 52.5465 108.29L50.2841 106.481C49.8381 106.124 49.5805 105.511 49.5822 104.921C49.5829 104.685 49.6253 104.452 49.7141 104.241L49.7141 104.241L51.3977 100.235C51.4864 100.024 51.6118 99.8571 51.7603 99.7388ZM50.3983 98.6495C50.4001 98.0597 50.1424 97.4467 49.6965 97.0901L32.7284 83.5204C31.4789 82.5211 29.9635 82.9068 29.3436 84.3817L28.7824 85.717C28.1625 87.192 28.6729 89.1977 29.9224 90.197L46.8905 103.767C47.3364 104.123 47.85 104.127 48.2202 103.832C48.3687 103.714 48.4941 103.547 48.5829 103.336C48.5829 103.336 48.5829 103.336 48.5829 103.336L50.2665 99.3301C50.3552 99.119 50.3976 98.8861 50.3983 98.6495ZM47.9454 93.6429C47.8218 93.406 47.7164 93.151 47.6333 92.8809C47.4221 92.9156 47.2093 92.9162 46.9988 92.8859L47.9454 93.6429ZM40.7999 100.943C40.9804 101.242 41.1306 101.575 41.2414 101.935C41.5228 101.889 41.8071 101.903 42.085 101.97L40.7999 100.943ZM51.3366 91.6981C51.5592 92.5729 51.2039 93.4184 50.5429 93.5865C49.882 93.7547 49.1658 93.1819 48.9432 92.3072L48.5401 90.7233L47.3434 91.0278C46.6825 91.196 45.9662 90.6232 45.7436 89.7485C45.521 88.8737 45.8764 88.0282 46.5373 87.86L47.734 87.5555L47.331 85.9716C47.1084 85.0969 47.4637 84.2514 48.1246 84.0832C48.7856 83.915 49.5018 84.4878 49.7244 85.3626L50.1274 86.9465L51.3242 86.6419C51.9851 86.4737 52.7013 87.0465 52.9239 87.9213C53.1465 88.7961 52.7912 89.6415 52.1303 89.8097L50.9335 90.1142L51.3366 91.6981ZM47.2196 119.475C47.8806 119.307 48.2359 118.461 48.0133 117.586L47.6103 116.002L48.807 115.698C49.4679 115.53 49.8232 114.684 49.6006 113.81C49.378 112.935 48.6618 112.362 48.0009 112.53L46.8042 112.835L46.4011 111.251C46.1785 110.376 45.4623 109.803 44.8013 109.971C44.1404 110.14 43.7851 110.985 44.0077 111.86L44.4107 113.444L43.214 113.748C42.5531 113.916 42.1977 114.762 42.4203 115.637C42.6429 116.511 43.3592 117.084 44.0201 116.916L45.2168 116.612L45.6199 118.195C45.8425 119.07 46.5587 119.643 47.2196 119.475ZM41.5437 108.844C41.7663 109.719 41.411 110.565 40.7501 110.733C40.0891 110.901 39.3729 110.328 39.1503 109.453L38.7472 107.869L37.5505 108.174C36.8896 108.342 36.1734 107.769 35.9508 106.895C35.7282 106.02 36.0835 105.174 36.7444 105.006L37.9411 104.702L37.5381 103.118C37.3155 102.243 37.6708 101.398 38.3318 101.229C38.9927 101.061 39.7089 101.634 39.9315 102.509L40.3346 104.093L41.5313 103.788C42.1922 103.62 42.9085 104.193 43.1311 105.067C43.3537 105.942 42.9983 106.788 42.3374 106.956L41.1407 107.26L41.5437 108.844ZM51.3977 100.235C51.3977 100.235 51.3977 100.235 51.3977 100.235V100.235Z" fill="#E18800"/>
<path d="M253.95 36.9428C259.685 54.5304 245.179 75.034 221.551 82.7388C197.923 90.4437 174.119 82.4322 168.384 64.8447C167.57 62.3483 167.164 59.7932 167.133 57.2243C166.95 41.6945 180.508 25.66 200.782 19.0487C220.937 12.4766 241.219 17.3393 250.306 29.826C251.217 31.0777 252.016 32.4059 252.69 33.8068C253.175 34.815 253.597 35.8608 253.95 36.9428Z" fill="#E3AC00"/>
<path d="M168.384 64.8447C167.57 62.3483 167.164 59.7932 167.133 57.2243L166 57.5978L168.384 64.8447Z" fill="#E3AC00"/>
<path d="M250.306 29.826C251.217 31.0777 252.016 32.4059 252.69 33.8068L251 29.5977L250.306 29.826Z" fill="#E3AC00"/>
<mask id="mask5_7733_12198" style="mask-type:alpha" maskUnits="userSpaceOnUse" x="165" y="11" width="89" height="70">
<ellipse cx="209.167" cy="45.8941" rx="45" ry="33.4954" transform="rotate(-18.0605 209.167 45.8941)" fill="#976000"/>
</mask>
<g mask="url(#mask5_7733_12198)">
<ellipse cx="207.868" cy="41.9137" rx="45" ry="33.4954" transform="rotate(-18.0605 207.868 41.9137)" fill="#FFC800"/>
</g>
<g clip-path="url(#clip5_7733_12198)">
<path d="M186.88 38.0913C186.402 36.6256 187.611 34.917 189.58 34.2749L218.102 24.9743C220.071 24.3322 222.054 24.9999 222.532 26.4655L229.455 47.6955C229.933 49.1612 228.724 50.8698 226.755 51.5119L198.233 60.8125C196.264 61.4546 194.281 60.7869 193.803 59.3213L186.88 38.0913Z" fill="#E3AC00"/>
<path d="M202.584 50.6896L203.265 52.7795C203.343 53.0191 203.514 53.1827 203.776 53.2704C204.039 53.3581 204.332 53.3492 204.655 53.2438C204.971 53.1407 205.21 52.9763 205.37 52.7507C205.531 52.5251 205.572 52.2925 205.494 52.0529L204.812 49.963L207.62 49.0475C207.934 48.9449 208.173 48.78 208.336 48.5528C208.499 48.3257 208.541 48.0917 208.462 47.851C208.385 47.6156 208.214 47.4541 207.949 47.3665C207.684 47.2788 207.394 47.2863 207.079 47.3889L204.271 48.3044L203.59 46.2146C203.513 45.9803 203.342 45.8186 203.075 45.7294C202.808 45.6402 202.514 45.6478 202.195 45.752C201.875 45.8563 201.637 46.022 201.481 46.2491C201.325 46.4762 201.285 46.7069 201.361 46.9412L202.043 49.031L199.235 49.9466C198.913 50.0515 198.673 50.2183 198.515 50.447C198.357 50.6756 198.317 50.909 198.394 51.147C198.472 51.385 198.641 51.5472 198.902 51.6333C199.163 51.7195 199.454 51.7101 199.776 51.6052L202.584 50.6896ZM213.757 48.9913L220.531 46.7824C220.833 46.684 221.061 46.5225 221.215 46.2981C221.369 46.0737 221.407 45.8412 221.329 45.6005C221.252 45.3651 221.091 45.2063 220.847 45.124C220.603 45.0417 220.32 45.0527 220.001 45.157L213.182 47.3804C212.873 47.4812 212.642 47.6377 212.487 47.85C212.333 48.0622 212.295 48.2874 212.372 48.5254C212.45 48.7635 212.62 48.9269 212.881 49.0156C213.143 49.1044 213.435 49.0963 213.757 48.9913ZM212.599 45.4419L219.329 43.2475C219.644 43.1449 219.882 42.98 220.045 42.7528C220.208 42.5257 220.25 42.2918 220.171 42.0511C220.095 41.8157 219.923 41.6541 219.658 41.5665C219.393 41.4788 219.103 41.4863 218.788 41.5889L212.059 43.7833C211.737 43.8883 211.497 44.0551 211.338 44.2837C211.18 44.5124 211.14 44.7457 211.217 44.9837C211.295 45.2218 211.464 45.3839 211.725 45.4701C211.986 45.5562 212.278 45.5469 212.599 45.4419ZM213.453 37.022L215.834 37.8235C216.112 37.9287 216.403 37.9316 216.708 37.8321C217.013 37.7326 217.257 37.5554 217.439 37.3003C217.613 37.0535 217.664 36.8185 217.592 36.5954C217.519 36.3723 217.338 36.2092 217.049 36.1061L214.668 35.3046L216.119 33.2533C216.296 33.0145 216.348 32.7816 216.274 32.5545C216.2 32.3274 216.018 32.1623 215.73 32.0591C215.434 31.9656 215.134 31.9686 214.829 32.0681C214.524 32.1676 214.289 32.339 214.125 32.5823L212.674 34.6336L210.293 33.8321C210.01 33.7344 209.715 33.7355 209.409 33.8353C209.103 33.9351 208.863 34.1084 208.688 34.3552C208.509 34.6111 208.456 34.8526 208.53 35.0797C208.604 35.3067 208.787 35.4633 209.078 35.5494L211.459 36.3509L210.008 38.4022C209.826 38.6503 209.773 38.8894 209.848 39.1195C209.923 39.3496 210.106 39.5086 210.397 39.5964C210.675 39.7016 210.966 39.7045 211.271 39.605C211.576 39.5056 211.82 39.3283 212.002 39.0732L213.453 37.022ZM197.332 41.8402L203.838 39.7185C204.153 39.6158 204.392 39.4509 204.554 39.2238C204.717 38.9966 204.759 38.7627 204.681 38.522C204.602 38.2813 204.431 38.1185 204.166 38.0334C203.902 37.9484 203.612 37.9572 203.297 38.0599L196.791 40.1816C196.469 40.2865 196.228 40.452 196.069 40.678C195.91 40.904 195.87 41.1373 195.948 41.378C196.027 41.6187 196.196 41.7822 196.457 41.8683C196.718 41.9545 197.01 41.9451 197.332 41.8402ZM198.852 59.3627C198.032 59.6301 197.248 59.6379 196.5 59.3861C195.752 59.1343 195.278 58.7032 195.079 58.0928L188.636 38.3324C188.436 37.7199 188.564 37.0906 189.019 36.4446C189.475 35.7985 190.112 35.3418 190.932 35.0744L217.48 26.4176C218.303 26.1493 219.089 26.1415 219.84 26.3942C220.591 26.6469 221.066 27.0795 221.266 27.692L227.71 47.4524C227.909 48.0627 227.779 48.6905 227.321 49.3357C226.863 49.9809 226.223 50.4376 225.4 50.706L198.852 59.3627Z" fill="white"/>
</g>
<ellipse cx="1302" cy="97.5" rx="45" ry="38.5" fill="#0085CF"/>
<mask id="mask6_7733_12198" style="mask-type:alpha" maskUnits="userSpaceOnUse" x="1257" y="55" width="90" height="77">
<ellipse cx="1302" cy="93.5" rx="45" ry="38.5" fill="#976000"/>
</mask>
<g mask="url(#mask6_7733_12198)">
<ellipse cx="1302" cy="88.6875" rx="45" ry="38.5" fill="#06B2FC"/>
</g>
<g clip-path="url(#clip6_7733_12198)">
<path fill-rule="evenodd" clip-rule="evenodd" d="M1295.67 74.373C1297.02 74.373 1298.11 75.3067 1298.11 76.4585V77.9588H1299.89C1301.24 77.9588 1302.33 78.8925 1302.33 80.0442C1302.33 81.196 1301.24 82.1297 1299.89 82.1297H1298.01C1297.71 85.1842 1296.76 88.0122 1295.3 90.3394C1296.96 90.9573 1298.64 91.4677 1299.92 91.826C1300.56 92.0051 1301.09 92.1444 1301.46 92.2383C1301.64 92.2852 1301.78 92.3206 1301.88 92.3439L1301.98 92.3697L1302.01 92.3756L1302.01 92.3767C1303.31 92.6825 1304.07 93.8304 1303.72 94.9407C1303.36 96.0512 1302.02 96.7037 1300.72 96.3981L1301.37 94.3874C1300.72 96.3981 1300.72 96.3982 1300.72 96.3981L1300.7 96.3943L1300.67 96.3857L1300.54 96.3542C1300.43 96.3269 1300.27 96.2871 1300.06 96.2355C1299.66 96.1324 1299.09 95.9816 1298.4 95.7888C1297.03 95.4048 1295.19 94.8463 1293.33 94.156C1293 94.0335 1292.67 93.9054 1292.33 93.7719C1290.37 95.4063 1287.93 96.4728 1285.12 96.4728C1283.78 96.4728 1282.69 95.5391 1282.69 94.3874C1282.69 93.2356 1283.78 92.302 1285.12 92.302C1286.01 92.302 1286.94 92.0595 1287.85 91.5413C1286.48 90.6368 1284.8 89.1888 1284.8 87.2158C1284.8 86.0641 1285.89 85.1304 1287.23 85.1304C1288.58 85.1304 1289.67 86.0641 1289.67 87.2158C1289.67 87.2031 1289.67 87.1966 1289.67 87.1964C1289.68 87.1943 1289.79 87.5751 1290.91 88.2914C1290.94 88.3127 1290.97 88.3339 1291.01 88.3552C1292.06 86.6688 1292.83 84.5329 1293.11 82.1297H1285.12C1283.78 82.1297 1282.69 81.196 1282.69 80.0442C1282.69 78.8925 1283.78 77.9588 1285.12 77.9588H1293.23V76.4585C1293.23 75.3067 1294.33 74.373 1295.67 74.373ZM1310.44 88.7162C1311.4 88.7162 1312.27 89.1994 1312.66 89.95L1321.1 106.086C1321.65 107.137 1321.1 108.371 1319.87 108.841C1318.64 109.312 1317.2 108.841 1316.65 107.789L1315.42 105.437H1305.45L1304.22 107.789C1303.68 108.841 1302.23 109.312 1301 108.841C1299.78 108.371 1299.23 107.137 1299.78 106.086L1308.21 89.95C1308.6 89.1994 1309.48 88.7162 1310.44 88.7162ZM1307.64 101.266H1313.24L1310.44 95.9083L1307.64 101.266Z" fill="white"/>
<path fill-rule="evenodd" clip-rule="evenodd" d="M1291.81 86.8609C1292.25 85.9094 1292.6 84.8599 1292.84 83.7345C1292.96 83.2152 1293.05 82.6797 1293.11 82.1303H1285.12C1283.78 82.1303 1282.69 81.1966 1282.69 80.0449C1282.69 78.8932 1283.78 77.9595 1285.12 77.9595H1293.23V76.4591C1293.23 75.3074 1294.33 74.3737 1295.67 74.3737C1297.02 74.3737 1298.11 75.3074 1298.11 76.4591V77.9595H1299.89C1301.24 77.9595 1302.33 78.8932 1302.33 80.0449C1302.33 81.1966 1301.24 82.1303 1299.89 82.1303H1298.01C1297.77 84.5766 1297.11 86.8776 1296.11 88.8924C1295.86 89.3934 1295.59 89.8766 1295.3 90.3401C1295.88 90.5573 1296.47 90.7612 1297.04 90.9499C1298.09 91.298 1299.09 91.5943 1299.92 91.8266C1300.56 92.0058 1301.09 92.1451 1301.46 92.2389C1301.64 92.2858 1301.78 92.3213 1301.88 92.3446L1301.98 92.3704L1302.01 92.3762L1302.01 92.3774C1303.12 92.6383 1303.84 93.5125 1303.8 94.4532C1303.8 94.6149 1303.77 94.7785 1303.72 94.9414C1303.6 95.3204 1303.36 95.6461 1303.05 95.8986C1302.96 95.9714 1302.86 96.0382 1302.76 96.0984C1302.76 96.0985 1302.76 96.0984 1302.76 96.0984C1302.19 96.4404 1301.45 96.5698 1300.72 96.3987C1300.72 96.3987 1300.72 96.3988 1300.76 96.2775C1300.77 96.2541 1300.78 96.2263 1300.79 96.193C1300.85 95.9957 1300.97 95.6092 1301.22 94.852L1300.72 96.3987L1300.7 96.395L1300.67 96.3864L1300.54 96.3549C1300.43 96.3276 1300.27 96.2878 1300.06 96.2362C1299.77 96.1606 1299.38 96.0596 1298.93 95.9353C1298.76 95.8898 1298.58 95.8411 1298.4 95.7895C1297.03 95.4054 1295.19 94.847 1293.33 94.1566C1293 94.0341 1292.67 93.906 1292.33 93.7725C1290.37 95.407 1287.93 96.4735 1285.12 96.4735C1283.78 96.4735 1282.69 95.5398 1282.69 94.388C1282.69 93.2363 1283.78 92.3026 1285.12 92.3026C1285.38 92.3026 1285.64 92.2825 1285.9 92.2414C1286.54 92.1399 1287.2 91.9108 1287.85 91.5419C1287.38 91.2298 1286.86 90.853 1286.4 90.4122C1285.52 89.5757 1284.8 88.5087 1284.8 87.2165C1284.8 86.0647 1285.89 85.1311 1287.23 85.1311C1287.9 85.1311 1288.49 85.3561 1288.93 85.7216C1289.15 85.9005 1289.33 86.1131 1289.45 86.3494C1289.45 86.3493 1289.45 86.3495 1289.45 86.3494C1289.57 86.5714 1289.65 86.8147 1289.67 87.0703C1289.67 87.1106 1289.67 87.1512 1289.67 87.192C1289.67 87.1972 1289.67 87.2023 1289.67 87.2074C1289.67 87.2087 1289.67 87.21 1289.67 87.2115M1289.68 87.2165C1289.68 87.2145 1289.68 87.2127 1289.68 87.211C1289.68 87.2015 1289.67 87.1968 1289.67 87.197C1289.67 87.1972 1289.67 87.2007 1289.67 87.2074C1289.67 87.2104 1289.67 87.2134 1289.67 87.2165M1291 88.3499C1291 88.3519 1291.01 88.3539 1291.01 88.3559C1291.01 88.3454 1291.02 88.3348 1291.03 88.3243C1291.04 88.3098 1291.05 88.2954 1291.05 88.2809C1291.15 88.1278 1291.24 87.9711 1291.33 87.811C1291.33 87.811 1291.33 87.811 1291.33 87.811C1291.4 87.6932 1291.46 87.5735 1291.52 87.452C1291.53 87.449 1291.53 87.446 1291.53 87.443C1291.63 87.2534 1291.72 87.0593 1291.81 86.8609M1289.68 87.2165C1289.73 87.3024 1289.94 87.6712 1290.91 88.292L1289.68 87.2165ZM1290.91 88.292C1290.93 88.3087 1290.96 88.3254 1290.99 88.3421L1290.91 88.292ZM1290.99 88.3421C1290.99 88.3447 1290.99 88.3473 1291 88.3499L1290.99 88.3421ZM1290.6 84.9106C1290.1 84.3774 1289.43 83.9655 1288.66 83.7345H1290.93C1290.84 84.14 1290.73 84.5325 1290.6 84.9106ZM1285.8 83.7345C1284.13 84.2391 1282.92 85.6075 1282.92 87.2165C1282.92 88.6367 1283.53 89.8188 1284.32 90.7621C1282.32 91.0835 1280.81 92.5847 1280.81 94.388C1280.81 96.4257 1282.74 98.0776 1285.12 98.0776C1288.05 98.0776 1290.6 97.1137 1292.67 95.6613C1294.57 96.3625 1296.44 96.9264 1297.81 97.3137C1298.52 97.5117 1299.11 97.6668 1299.53 97.7736C1299.74 97.827 1299.91 97.8684 1300.02 97.8973L1300.16 97.9298L1300.2 97.9401L1300.22 97.9448L1300.22 97.9454C1300.79 98.08 1301.37 98.1095 1301.92 98.0476L1298.06 105.432C1297.09 107.292 1298.06 109.474 1300.24 110.306C1302.41 111.138 1304.96 110.305 1305.94 108.445L1306.67 107.042H1314.2L1314.94 108.445C1315.91 110.305 1318.46 111.138 1320.64 110.306C1322.81 109.474 1323.78 107.292 1322.81 105.432L1314.37 89.2956C1313.68 87.9676 1312.14 87.1127 1310.44 87.1127C1308.74 87.1127 1307.2 87.9676 1306.5 89.2956L1304.93 92.3056C1304.37 91.6097 1303.54 91.0721 1302.51 90.8308L1302.5 90.827L1302.49 90.8253L1302.39 90.8022C1302.39 90.802 1302.39 90.8019 1302.39 90.8017C1302.3 90.7799 1302.17 90.7463 1301.99 90.7015C1301.64 90.6113 1301.12 90.4764 1300.5 90.3024C1299.73 90.0856 1298.81 89.8131 1297.85 89.4958C1298.72 87.7323 1299.34 85.785 1299.68 83.7345H1299.89C1302.27 83.7345 1304.2 82.0826 1304.2 80.0449C1304.2 78.0335 1302.32 76.3981 1299.98 76.3561C1299.92 74.3661 1298.01 72.7695 1295.67 72.7695C1293.33 72.7695 1291.43 74.3656 1291.36 76.3553H1285.12C1282.74 76.3553 1280.81 78.0072 1280.81 80.0449C1280.81 82.0826 1282.74 83.7345 1285.12 83.7345H1285.8ZM1299.78 106.087C1299.23 107.138 1299.78 108.372 1301 108.842C1302.23 109.312 1303.68 108.841 1304.22 107.79L1305.45 105.438H1315.42L1316.65 107.79C1317.2 108.841 1318.64 109.312 1319.87 108.842C1321.1 108.372 1321.65 107.138 1321.1 106.087L1312.66 89.9506C1312.27 89.2 1311.4 88.7168 1310.44 88.7168C1309.48 88.7168 1308.6 89.2 1308.21 89.9506L1299.78 106.087ZM1313.24 101.267L1310.44 95.909L1307.64 101.267H1313.24Z" fill="#0085CF"/>
</g>
</g>
<defs>
<clipPath id="clip0_7733_12198">
<rect width="1347" height="251" fill="white"/>
</clipPath>
<clipPath id="clip1_7733_12198">
<rect width="45" height="35.5799" fill="white" transform="translate(921.689 49.1816) rotate(27.5649)"/>
</clipPath>
<clipPath id="clip2_7733_12198">
<rect width="45" height="37.5" fill="white" transform="translate(1050.53 169.412) rotate(-27.3588)"/>
</clipPath>
<clipPath id="clip3_7733_12198">
<rect width="45" height="32" fill="white" transform="translate(1157.54 84.9316) rotate(-124.165)"/>
</clipPath>
<clipPath id="clip4_7733_12198">
<rect width="45" height="38" fill="white" transform="translate(304.244 139.15) rotate(17.3652)"/>
</clipPath>
<clipPath id="clip5_7733_12198">
<rect width="45" height="33.4954" fill="white" transform="translate(181.584 33.9473) rotate(-18.0605)"/>
</clipPath>
<clipPath id="clip6_7733_12198">
<rect width="45" height="38.5" fill="white" transform="translate(1279.5 73.25)"/>
</clipPath>
</defs>
</svg>
